<svg width="750" height="500" viewBox="0 0 750 500" fill="none" xmlns="http://www.w3.org/2000/svg">
<path d="M697.69 188.523C697.69 188.523 592.193 73.213 431.086 33.959C269.979 -5.29499 246.273 123.146 200.466 173.803C154.659 224.46 71.253 218.782 30.363 280.935C-10.527 343.088 34.452 452.673 234.814 480.479C435.175 508.284 422.908 401.152 547.214 420.78C671.52 440.406 814.635 334.909 697.69 188.523Z" fill="#0529BB"/>
<path opacity="0.7" d="M697.69 188.523C697.69 188.523 592.193 73.213 431.086 33.959C269.979 -5.29499 246.273 123.146 200.466 173.803C154.659 224.46 71.253 218.782 30.363 280.935C-10.527 343.088 34.452 452.673 234.814 480.479C435.175 508.284 422.908 401.152 547.214 420.78C671.52 440.406 814.635 334.909 697.69 188.523Z" fill="white"/>
<path d="M280.773 17.8091V476.009" stroke="#263238" stroke-miterlimit="10" stroke-linecap="round" stroke-linejoin="round"/>
<path d="M589.113 53.395H451.799V242.404H589.113V53.395Z" fill="#263238" stroke="#263238" stroke-miterlimit="10" stroke-linecap="round" stroke-linejoin="round"/>
<path d="M582.573 61.8259H458.339V233.973H582.573V61.8259Z" fill="white" stroke="#263238" stroke-miterlimit="10" stroke-linecap="round" stroke-linejoin="round"/>
<path d="M533.549 88.4771L502.911 119.114" stroke="#263238" stroke-miterlimit="10" stroke-linecap="round" stroke-linejoin="round"/>
<path d="M549.549 72.4771L536.613 85.4131" stroke="#263238" stroke-miterlimit="10" stroke-linecap="round" stroke-linejoin="round"/>
<path d="M512.784 98.3491L494.401 116.731" stroke="#263238" stroke-miterlimit="10" stroke-linecap="round" stroke-linejoin="round"/>
<path d="M508.358 219.197L502.911 224.644" stroke="#263238" stroke-miterlimit="10" stroke-linecap="round" stroke-linejoin="round"/>
<path d="M549.549 178.007L511.422 216.134" stroke="#263238" stroke-miterlimit="10" stroke-linecap="round" stroke-linejoin="round"/>
<path d="M512.784 203.879L494.401 222.261" stroke="#263238" stroke-miterlimit="10" stroke-linecap="round" stroke-linejoin="round"/>
<path d="M525.005 154.95C525.005 152.66 523.149 150.804 520.86 150.804C518.57 150.804 516.714 152.66 516.714 154.95C516.714 157.239 518.57 159.095 520.86 159.095C523.149 159.096 525.005 157.24 525.005 154.95Z" fill="#263238" stroke="#263238" stroke-miterlimit="10" stroke-linecap="round" stroke-linejoin="round"/>
<path d="M582.573 154.361H458.339V161.977H582.573V154.361Z" fill="#263238" stroke="#263238" stroke-miterlimit="10" stroke-linecap="round" stroke-linejoin="round"/>
<path d="M593.152 42.0859H448.568V58.2409H593.152V42.0859Z" fill="#263238" stroke="#263238" stroke-miterlimit="10" stroke-linecap="round" stroke-linejoin="round"/>
<path d="M593.152 236.752H448.568V252.907H593.152V236.752Z" fill="#263238" stroke="#263238" stroke-miterlimit="10" stroke-linecap="round" stroke-linejoin="round"/>
<path d="M644.039 19.47H396.873V24.316H644.039V19.47Z" fill="white" stroke="#263238" stroke-miterlimit="10" stroke-linecap="round" stroke-linejoin="round"/>
<path d="M415.002 270.674H410.246C407.768 270.674 405.758 268.665 405.758 266.186V19.9189C405.758 17.4399 407.767 15.4309 410.246 15.4309H415.002C417.48 15.4309 419.49 17.4399 419.49 19.9189V266.187C419.49 268.665 417.481 270.674 415.002 270.674Z" fill="white" stroke="#263238" stroke-miterlimit="10" stroke-linecap="round" stroke-linejoin="round"/>
<path d="M427.926 270.674H423.17C420.692 270.674 418.682 268.665 418.682 266.186V19.9189C418.682 17.4399 420.691 15.4309 423.17 15.4309H427.926C430.404 15.4309 432.414 17.4399 432.414 19.9189V266.187C432.413 268.665 430.404 270.674 427.926 270.674Z" fill="white" stroke="#263238" stroke-miterlimit="10" stroke-linecap="round" stroke-linejoin="round"/>
<path d="M440.849 270.674H436.093C433.615 270.674 431.605 268.665 431.605 266.186V19.9189C431.605 17.4399 433.614 15.4309 436.093 15.4309H440.849C443.328 15.4309 445.337 17.4399 445.337 19.9189V266.187C445.337 268.665 443.328 270.674 440.849 270.674Z" fill="white" stroke="#263238" stroke-miterlimit="10" stroke-linecap="round" stroke-linejoin="round"/>
<path d="M453.773 270.674H449.017C446.539 270.674 444.529 268.665 444.529 266.186V19.9189C444.529 17.4399 446.538 15.4309 449.017 15.4309H453.773C456.251 15.4309 458.261 17.4399 458.261 19.9189V266.187C458.261 268.665 456.252 270.674 453.773 270.674Z" fill="white" stroke="#263238" stroke-miterlimit="10" stroke-linecap="round" stroke-linejoin="round"/>
<path d="M592.703 270.674H587.947C585.469 270.674 583.459 268.665 583.459 266.186V19.9189C583.459 17.4399 585.468 15.4309 587.947 15.4309H592.703C595.181 15.4309 597.191 17.4399 597.191 19.9189V266.187C597.191 268.665 595.181 270.674 592.703 270.674Z" fill="white" stroke="#263238" stroke-miterlimit="10" stroke-linecap="round" stroke-linejoin="round"/>
<path d="M605.627 270.674H600.871C598.393 270.674 596.383 268.665 596.383 266.186V19.9189C596.383 17.4399 598.392 15.4309 600.871 15.4309H605.627C608.105 15.4309 610.115 17.4399 610.115 19.9189V266.187C610.114 268.665 608.105 270.674 605.627 270.674Z" fill="white" stroke="#263238" stroke-miterlimit="10" stroke-linecap="round" stroke-linejoin="round"/>
<path d="M618.55 270.674H613.794C611.316 270.674 609.306 268.665 609.306 266.186V19.9189C609.306 17.4399 611.315 15.4309 613.794 15.4309H618.55C621.029 15.4309 623.038 17.4399 623.038 19.9189V266.187C623.038 268.665 621.029 270.674 618.55 270.674Z" fill="white" stroke="#263238" stroke-miterlimit="10" stroke-linecap="round" stroke-linejoin="round"/>
<path d="M631.474 270.674H626.718C624.24 270.674 622.23 268.665 622.23 266.186V19.9189C622.23 17.4399 624.239 15.4309 626.718 15.4309H631.474C633.952 15.4309 635.962 17.4399 635.962 19.9189V266.187C635.962 268.665 633.953 270.674 631.474 270.674Z" fill="white" stroke="#263238" stroke-miterlimit="10" stroke-linecap="round" stroke-linejoin="round"/>
<path d="M672.998 289.636L673 289.63C673.018 289.584 672.997 289.533 672.951 289.513C672.905 289.493 672.851 289.514 672.831 289.561C670.069 295.94 668.127 302.635 666.506 309.39C664.941 316.163 663.808 323.033 663.016 329.947L662.522 335.143C662.446 336.009 662.351 336.875 662.289 337.743L662.147 340.35C662.072 342.089 661.965 343.827 661.916 345.567L661.963 350.789L662.021 353.398C662.06 354.267 662.122 355.135 662.181 356.003C662.313 357.739 662.418 359.475 662.577 361.206C662.91 364.667 663.43 368.111 663.966 371.539C663.973 371.583 664.011 371.617 664.057 371.616C664.107 371.616 664.148 371.575 664.148 371.524V371.519C664.139 369.779 664.065 368.048 664.026 366.316C663.976 364.585 663.825 362.863 663.85 361.131C663.858 359.4 663.813 357.674 663.794 355.948L663.746 353.36L663.792 350.772L663.815 345.598L663.955 340.427L664.009 337.839C664.042 336.977 664.107 336.117 664.154 335.256L664.472 330.088C665.077 323.211 666.022 316.358 667.399 309.585C668.773 302.819 670.473 296.079 672.998 289.636Z" fill="#263238"/>
<path d="M673.739 316.691C673.752 316.645 673.728 316.593 673.682 316.577C673.634 316.561 673.582 316.586 673.566 316.634C672.077 320.933 670.888 325.33 669.883 329.774C668.922 334.225 668.169 338.735 667.709 343.279C667.249 347.806 666.743 352.339 666.681 356.892C666.611 361.442 666.684 365.998 667.165 370.544C667.17 370.586 667.203 370.621 667.247 370.626C667.298 370.631 667.343 370.595 667.348 370.544C667.874 366.011 668.195 361.49 668.508 356.97C668.829 352.452 668.872 347.921 669.167 343.401C669.44 338.895 670.005 334.408 670.781 329.949C671.54 325.49 672.487 321.048 673.739 316.691Z" fill="#263238"/>
<path d="M688.738 326.209C688.711 326.167 688.654 326.154 688.612 326.181C684.858 328.558 681.509 331.552 678.583 334.925C677.144 336.637 675.808 338.429 674.661 340.378L673.855 341.899L673.224 343.479C672.997 344.003 672.838 344.542 672.674 345.081C672.512 345.62 672.331 346.157 672.185 346.699C671.059 351.046 670.313 355.476 670.11 359.929C669.929 364.379 670.013 368.836 670.608 373.255C670.614 373.297 670.649 373.331 670.693 373.334C670.743 373.338 670.787 373.3 670.791 373.249L671.934 360.058C672.39 355.697 672.669 351.311 673.605 347.052C673.724 346.521 673.877 346.003 674.011 345.477C674.147 344.952 674.279 344.424 674.474 343.924L675.009 342.399L675.698 340.959C676.714 339.053 677.956 337.231 679.291 335.503C681.97 332.046 685.121 328.895 688.708 326.337L688.713 326.333C688.753 326.304 688.764 326.25 688.738 326.209Z" fill="#263238"/>
<path d="M681.479 343.156C679.435 344.476 678.068 346.551 676.918 348.638C675.822 350.772 674.959 353.034 674.362 355.355C674.183 355.93 674.041 356.512 673.916 357.097L673.503 358.851C673.292 360.029 673.127 361.219 673.06 362.413C673.044 363.61 673.01 364.805 673.091 365.998C673.19 367.191 673.326 368.38 673.561 369.56C673.569 369.594 673.598 369.626 673.634 369.633C673.684 369.643 673.734 369.61 673.744 369.56C674.033 368.383 674.222 367.217 674.376 366.053C674.561 364.892 674.742 363.738 674.881 362.583C675.05 361.433 675.203 360.286 675.292 359.127C675.453 357.984 675.537 356.815 675.788 355.685C676.189 353.399 676.851 351.166 677.744 349.031C678.634 346.914 679.792 344.804 681.573 343.312L681.587 343.3C681.622 343.271 681.63 343.22 681.605 343.181C681.577 343.141 681.521 343.129 681.479 343.156Z" fill="#263238"/>
<path d="M660.443 356.369C659.95 350.513 658.984 344.716 658.071 338.921C657.155 333.126 656.146 327.348 655.086 321.581C653.988 315.821 652.841 310.071 651.599 304.342C651.589 304.295 651.542 304.263 651.493 304.271C651.443 304.28 651.41 304.328 651.42 304.377C652.422 310.149 653.329 315.938 654.185 321.732C655.064 327.522 655.891 333.319 656.624 339.126C657.34 344.936 657.897 350.759 658.626 356.559L660.768 373.991C660.773 374.035 660.809 374.07 660.855 374.072C660.906 374.074 660.948 374.035 660.951 373.985C661.018 372.516 661.02 371.048 661.056 369.575C661.069 368.104 660.996 366.638 660.97 365.167C660.914 362.225 660.664 359.299 660.443 356.369Z" fill="#263238"/>
<path d="M656.932 356.284C656.619 353.965 656.193 351.659 655.75 349.36L654.928 345.941C654.659 344.801 654.403 343.659 654.07 342.534C652.902 337.998 651.408 333.539 649.594 329.218L648.892 327.607L648.112 326.03C647.616 324.968 647.016 323.957 646.446 322.934C645.222 320.94 643.951 318.947 642.219 317.33C642.184 317.297 642.128 317.297 642.094 317.331C642.058 317.366 642.057 317.423 642.092 317.46L642.101 317.469C643.702 319.128 644.868 321.176 645.967 323.2C646.476 324.241 647.014 325.265 647.45 326.34L648.138 327.934L648.748 329.561C650.37 333.896 651.671 338.352 652.65 342.881C653.184 345.134 653.538 347.43 653.974 349.702L654.522 353.134C654.72 354.275 654.965 355.408 655.125 356.557C655.49 358.846 655.911 361.13 656.311 363.421C656.666 365.718 657.086 368.011 657.57 370.306C657.579 370.347 657.616 370.381 657.66 370.382C657.711 370.382 657.752 370.342 657.752 370.291C657.762 367.952 657.708 365.61 657.588 363.273C657.451 360.937 657.175 358.613 656.932 356.284Z" fill="#263238"/>
<path d="M652.086 356.583C651.001 353.511 649.746 350.503 648.378 347.554C646.974 344.621 645.459 341.744 643.714 339.004C643.687 338.965 643.632 338.95 643.59 338.974C643.546 339 643.532 339.056 643.558 339.099C645.082 341.945 646.371 344.914 647.539 347.917C648.728 350.912 649.799 353.951 650.696 357.038C651.612 360.122 652.268 363.266 653.088 366.364C653.951 369.459 654.649 372.587 655.6 375.722C655.611 375.759 655.647 375.79 655.688 375.79C655.739 375.791 655.781 375.75 655.782 375.699C655.828 372.428 655.507 369.159 654.871 365.957C654.297 362.737 653.165 359.653 652.086 356.583Z" fill="#263238"/>
<path d="M651.885 366.817C651.33 364.893 650.383 363.101 649.307 361.412C648.251 359.714 647.025 358.109 645.555 356.75C644.798 356.094 644.024 355.463 643.168 354.95C642.325 354.423 641.431 353.978 640.461 353.726C640.419 353.715 640.374 353.736 640.355 353.777C640.335 353.823 640.355 353.877 640.401 353.897L640.412 353.902C642.167 354.682 643.649 355.975 644.902 357.39C646.172 358.807 647.186 360.433 648.03 362.127C648.918 363.809 649.378 365.668 650.151 367.401C650.492 368.289 650.831 369.184 651.225 370.071C651.559 370.976 651.931 371.879 652.402 372.777L652.404 372.782C652.419 372.811 652.449 372.831 652.483 372.832C652.535 372.834 652.579 372.794 652.581 372.742C652.623 371.74 652.564 370.743 652.469 369.749C652.328 368.765 652.12 367.789 651.885 366.817Z" fill="#263238"/>
<path d="M652.247 312.726C652.247 312.726 642.652 310.512 640.437 300.178C638.223 289.845 645.358 294.273 638.961 278.035C632.564 261.797 634.04 258.106 636.255 253.431C638.469 248.756 639.699 250.232 641.668 256.383C643.636 262.534 650.772 272.129 653.478 290.09C656.184 308.051 652.247 312.726 652.247 312.726Z" fill="#0529BB"/>
<path d="M671.192 295.257C671.192 295.257 664.795 293.043 664.549 280.987C664.303 268.931 669.224 271.392 669.962 256.383C670.7 241.375 671.684 230.795 674.39 230.549C677.097 230.303 684.232 237.93 686.692 254.661C689.152 271.391 683.494 282.463 678.573 287.384C673.652 292.305 671.192 295.257 671.192 295.257Z" fill="#0529BB"/>
<path d="M648.803 327.242C648.803 327.242 647.327 318.385 644.374 314.202C641.421 310.019 635.024 306.329 630.842 298.209C626.659 290.09 621.985 286.153 622.231 297.717C622.477 309.281 627.644 315.186 634.041 319.122C640.437 323.059 648.803 327.242 648.803 327.242Z" fill="#0529BB"/>
<path d="M646.096 342.496C646.096 342.496 640.191 331.178 631.58 322.813C622.969 314.448 616.08 310.265 618.54 314.448C621 318.631 623.953 318.385 628.135 325.766C632.318 333.147 631.087 338.56 636.992 342.743C642.898 346.925 646.096 342.496 646.096 342.496Z" fill="#0529BB"/>
<path d="M645.358 357.013C645.112 356.275 644.866 350.862 636.501 346.434C628.136 342.005 620.263 343.727 621.247 345.942C622.231 348.157 627.398 351.847 632.565 354.061C637.731 356.275 645.358 357.013 645.358 357.013Z" fill="#0529BB"/>
<path d="M670.7 327.734C670.7 327.734 667.01 323.059 668.978 313.218C670.946 303.376 675.375 305.837 680.296 300.67C685.217 295.503 684.233 294.765 689.153 289.352C694.074 283.939 698.502 280.987 700.471 283.201C702.439 285.416 699.487 292.304 696.534 296.241C693.582 300.178 688.907 302.146 686.692 307.067C684.478 311.988 685.462 319.861 679.803 323.551C674.144 327.242 670.7 327.734 670.7 327.734Z" fill="#0529BB"/>
<path d="M683.002 330.441C683.002 330.441 691.859 320.353 698.256 312.972C704.653 305.591 707.113 299.932 707.359 304.853C707.605 309.774 709.573 313.711 704.406 320.107C699.24 326.504 683.002 330.441 683.002 330.441Z" fill="#0529BB"/>
<path d="M678.327 346.679C678.327 346.679 678.081 342.742 692.105 333.639C706.129 324.536 712.034 322.813 710.558 326.504C709.082 330.195 702.931 333.885 696.288 340.528C689.645 347.171 678.327 346.679 678.327 346.679Z" fill="#0529BB"/>
<path d="M652.832 311.677C652.832 311.677 649.54 294.027 646.096 281.479C642.651 268.931 640.437 261.304 640.437 261.304" stroke="#263238" stroke-miterlimit="10" stroke-linecap="round" stroke-linejoin="round"/>
<path d="M670.625 295.443C670.625 295.443 676.604 276.312 678.573 264.749C680.541 253.185 678.327 244.574 677.343 239.407" stroke="#263238" stroke-miterlimit="10" stroke-linecap="round" stroke-linejoin="round"/>
<path d="M648.027 326.873C648.027 326.873 644.374 320.353 638.961 313.956C633.548 307.559 629.365 304.115 626.905 297.964" stroke="#263238" stroke-miterlimit="10" stroke-linecap="round" stroke-linejoin="round"/>
<path d="M670.7 327.734C670.7 327.734 672.668 315.924 677.343 309.773C682.018 303.622 691.367 294.027 695.058 287.876" stroke="#263238" stroke-miterlimit="10" stroke-linecap="round" stroke-linejoin="round"/>
<path d="M644.78 356.744C644.78 356.744 636.501 351.354 630.596 348.402" stroke="#263238" stroke-miterlimit="10" stroke-linecap="round" stroke-linejoin="round"/>
<path d="M692.185 406.336C691.632 391.406 675.043 381.453 675.043 381.453H664.548H660.113H649.618C649.618 381.453 633.029 391.406 632.476 406.336C631.923 421.266 651.277 476.009 651.277 476.009H660.113H664.548H673.384C673.384 476.009 692.738 421.266 692.185 406.336Z" fill="#263238" stroke="#263238" stroke-miterlimit="10" stroke-linecap="round" stroke-linejoin="round"/>
<path d="M678.317 366.773H645.875L649.618 381.453H674.573L678.317 366.773Z" fill="#263238" stroke="#263238" stroke-miterlimit="10" stroke-linecap="round" stroke-linejoin="round"/>
<path d="M152.878 36.272H105.081V97.725H152.878V36.272Z" stroke="#263238" stroke-miterlimit="10" stroke-linecap="round" stroke-linejoin="round"/>
<path d="M149.792 40.239H108.167V93.757H149.792V40.239Z" stroke="#263238" stroke-miterlimit="10" stroke-linecap="round" stroke-linejoin="round"/>
<path d="M135.698 58.3599H122.261V75.6359H135.698V58.3599Z" stroke="#263238" stroke-miterlimit="10" stroke-linecap="round" stroke-linejoin="round"/>
<path d="M214.02 82.2061H166.223V143.659H214.02V82.2061Z" stroke="#263238" stroke-miterlimit="10" stroke-linecap="round" stroke-linejoin="round"/>
<path d="M210.934 86.1741H169.309V139.692H210.934V86.1741Z" stroke="#263238" stroke-miterlimit="10" stroke-linecap="round" stroke-linejoin="round"/>
<path d="M196.84 104.295H183.403V121.571H196.84V104.295Z" stroke="#263238" stroke-miterlimit="10" stroke-linecap="round" stroke-linejoin="round"/>
<path d="M152.878 107.398H105.081V143.296H152.878V107.398Z" stroke="#263238" stroke-miterlimit="10" stroke-linecap="round" stroke-linejoin="round"/>
<path d="M149.792 109.716H108.167V140.979H149.792V109.716Z" stroke="#263238" stroke-miterlimit="10" stroke-linecap="round" stroke-linejoin="round"/>
<path d="M135.698 120.301H122.261V130.393H135.698V120.301Z" stroke="#263238" stroke-miterlimit="10" stroke-linecap="round" stroke-linejoin="round"/>
<path d="M349.843 221.861L321.118 235.385L324.594 252.704L353.344 246.933L349.843 221.861Z" fill="white" stroke="#263238" stroke-miterlimit="10" stroke-linecap="round" stroke-linejoin="round"/>
<path d="M324.594 252.704C324.594 252.704 328.99 236.842 326.41 235.916C323.83 234.989 321.118 235.386 321.118 235.386C321.118 235.386 323.152 251.09 324.594 252.704Z" fill="white" stroke="#263238" stroke-miterlimit="10" stroke-linecap="round" stroke-linejoin="round"/>
<path d="M310.443 255.896C310.443 255.896 317.045 252.683 318.296 251.538C319.546 250.394 322.035 244.229 322.035 244.229C322.035 244.229 326.824 244.442 326.408 242.596C325.992 240.75 318.868 237.832 314.316 240.583C309.764 243.334 307.089 255.359 307.089 255.359C307.089 255.359 306.983 257.754 310.443 255.896Z" fill="white" stroke="#263238" stroke-miterlimit="10" stroke-linecap="round" stroke-linejoin="round"/>
<path d="M292.603 253.24L313.497 234.088C313.497 234.088 315.582 229.954 316.376 228.697C317.17 227.44 321.02 226.356 323.66 224.683C326.3 223.01 327.18 220.225 328.503 220.358C329.826 220.491 329.806 221.357 329.607 223.342C329.408 225.326 326.748 227.866 326.179 228.21C325.61 228.554 332.02 229.263 334.573 229.118C337.126 228.973 341.023 228.094 341.023 228.094C341.023 228.094 345.701 222.082 346.574 224.04C347.447 225.998 342.669 236.343 341.398 238.354C340.127 240.365 332.904 241.779 328.505 242.34C324.106 242.901 317.994 242.556 317.994 242.556L308.379 259.164L292.603 253.24Z" fill="white" stroke="#263238" stroke-miterlimit="10" stroke-linecap="round" stroke-linejoin="round"/>
<path d="M319.007 238.448C319.007 238.448 324.61 236.537 326.41 235.916C328.21 235.295 337.649 235.105 337.649 235.105C337.649 235.105 343.386 225.19 343.71 226.626C344.034 228.062 341.413 235.549 340.87 236.965C340.327 238.38 339.394 239.022 338.369 239.253" fill="white"/>
<path d="M319.007 238.448C319.007 238.448 324.61 236.537 326.41 235.916C328.21 235.295 337.649 235.105 337.649 235.105C337.649 235.105 343.386 225.19 343.71 226.626C344.034 228.062 341.413 235.549 340.87 236.965C340.327 238.38 339.394 239.022 338.369 239.253" stroke="#263238" stroke-miterlimit="10" stroke-linecap="round" stroke-linejoin="round"/>
<path d="M372.684 441.211C372.684 441.211 369.077 447.113 366.126 451.048C363.175 454.983 352.354 461.869 350.059 463.181C347.764 464.493 337.271 467.772 337.599 469.411C337.927 471.05 337.599 474.657 339.894 475.313C342.189 475.969 376.947 475.313 376.947 475.313H400.228C400.228 475.313 401.54 466.459 400.884 462.197C400.228 457.934 395.966 448.097 395.966 448.097L372.684 441.211Z" fill="white" stroke="#263238" stroke-miterlimit="10" stroke-linecap="round" stroke-linejoin="round"/>
<path d="M400.705 471.378H337.815C337.979 473.019 338.318 474.862 339.894 475.313C342.189 475.969 376.947 475.313 376.947 475.313H400.228C400.228 475.313 400.478 473.629 400.705 471.378Z" fill="white" stroke="#263238" stroke-miterlimit="10" stroke-linecap="round" stroke-linejoin="round"/>
<path d="M352.682 297.26C352.682 297.26 360.224 341.199 362.847 353.66C365.47 366.12 373.34 437.276 373.34 437.276L369.733 439.243L370.717 444.489C370.717 444.489 377.603 448.096 382.194 449.08C386.785 450.064 397.934 451.375 397.934 451.375L402.197 447.112C402.197 447.112 406.132 435.307 403.509 415.633C400.886 395.959 396.295 339.231 396.951 330.05C397.607 320.869 397.279 306.113 397.279 306.113C397.279 306.113 360.88 300.539 352.682 297.26Z" fill="white" stroke="#263238" stroke-miterlimit="10" stroke-linecap="round" stroke-linejoin="round"/>
<path d="M399.245 445.769C399.245 445.769 393.343 456.262 390.064 458.557C386.785 460.852 372.357 467.41 372.357 470.034C372.357 472.657 373.013 475.608 374.652 475.936C376.291 476.264 418.919 475.936 418.919 475.936C418.919 475.936 428.428 477.248 432.035 472.985C435.642 468.722 430.723 452.327 430.723 452.327L399.245 445.769Z" fill="white" stroke="#263238" stroke-miterlimit="10" stroke-linecap="round" stroke-linejoin="round"/>
<path d="M432.035 472.985C432.12 472.885 432.196 472.771 432.272 472.657H372.59C372.906 474.332 373.56 475.717 374.652 475.936C376.292 476.264 418.919 475.936 418.919 475.936C418.919 475.936 428.428 477.248 432.035 472.985Z" fill="white" stroke="#263238" stroke-miterlimit="10" stroke-linecap="round" stroke-linejoin="round"/>
<path d="M385.801 303.13C385.801 303.13 388.424 343.79 392.031 361.497C395.638 379.204 398.917 435.931 398.917 435.931C398.917 435.931 396.622 439.538 396.622 440.522C396.622 441.506 397.934 449.376 397.934 449.376C397.934 449.376 405.804 452.327 413.018 454.622C420.232 456.917 432.036 458.229 432.036 458.229C432.036 458.229 432.364 452.655 432.692 446.424C433.02 440.193 430.397 435.603 430.725 433.964C431.053 432.325 433.02 373.629 430.725 360.841C428.43 348.053 428.102 348.709 428.102 343.79C428.102 338.871 431.381 295.26 431.381 295.26C431.381 295.26 402.852 306.409 385.801 303.13Z" fill="white" stroke="#263238" stroke-miterlimit="10" stroke-linecap="round" stroke-linejoin="round"/>
<path d="M379.98 113.744C379.98 113.744 351.843 139.081 351.185 141.929C350.528 144.777 345.05 297.931 345.05 297.931C345.05 297.931 373.095 307.791 397.635 307.791C422.175 307.791 439.703 297.931 439.703 297.931C439.703 297.931 446.276 142.148 443.647 136.232C441.018 130.316 415.212 111.537 409.163 109.971C403.113 108.406 386.426 110.756 379.98 113.744Z" fill="white" stroke="#263238" stroke-miterlimit="10" stroke-linecap="round" stroke-linejoin="round"/>
<path d="M383.656 230.545L419.726 232.841L419.398 239.399L383.984 236.448" stroke="#263238" stroke-miterlimit="10" stroke-linecap="round" stroke-linejoin="round"/>
<path d="M374.856 167.701C374.856 167.701 372.942 184.654 368.02 222.389C363.098 260.124 363.645 298.952 363.645 298.952" fill="white"/>
<path d="M374.856 167.701C374.856 167.701 372.942 184.654 368.02 222.389C363.098 260.124 363.645 298.952 363.645 298.952" stroke="#263238" stroke-miterlimit="10" stroke-linecap="round" stroke-linejoin="round"/>
<path d="M374.818 136.574L372.833 151.662L375.612 163.97L384.148 152.456L392.883 139.949L410.155 111.362L394.67 108.384L376.803 123.472C376.803 123.472 375.017 134.986 374.818 136.574Z" fill="white" stroke="#263238" stroke-miterlimit="10" stroke-linecap="round" stroke-linejoin="round"/>
<path d="M378.59 132.008L380.576 139.75L372.833 151.662L375.612 163.97L384.149 152.456V140.743L389.31 133.398L384.745 124.266L378.59 132.008Z" fill="white" stroke="#263238" stroke-miterlimit="10" stroke-linecap="round" stroke-linejoin="round"/>
<path d="M384.149 130.023L374.818 136.574C374.818 136.574 374.619 130.618 376.803 123.471C378.987 116.324 379.979 113.743 379.979 113.743L406.978 108.78L409.162 109.971L410.155 111.361L392.883 139.948L384.149 130.023Z" fill="white" stroke="#263238" stroke-miterlimit="10" stroke-linecap="round" stroke-linejoin="round"/>
<path d="M364.495 63.319C364.495 63.319 363.304 75.23 364.098 75.826C364.892 76.422 366.083 80.988 366.083 80.988C366.083 80.988 362.311 93.495 363.899 93.892C365.487 94.289 368.266 96.274 368.266 96.274C368.266 96.274 372.236 111.362 374.222 112.553C376.207 113.744 379.979 113.744 379.979 113.744L380.178 118.707C380.178 118.707 383.156 129.824 384.148 130.023C385.141 130.222 409.162 109.972 409.162 109.972L407.177 89.723C407.177 89.723 412.339 88.532 413.53 83.966C414.721 79.4 412.339 73.444 412.339 73.444C412.339 73.444 412.428 58.732 409.361 52.599C405.589 45.055 386.729 45.651 376.605 47.437C366.48 49.224 361.517 55.576 361.914 58.157C362.311 60.738 364.495 63.319 364.495 63.319Z" fill="white" stroke="#263238" stroke-miterlimit="10" stroke-linecap="round" stroke-linejoin="round"/>
<path d="M409.361 52.599C405.589 45.055 386.729 45.651 376.605 47.437C366.48 49.224 361.517 55.576 361.914 58.157C362.311 60.738 364.495 63.319 364.495 63.319C364.495 63.319 367.671 64.907 370.451 64.113C373.23 63.319 385.539 60.738 388.715 61.929C391.891 63.12 388.715 66.296 388.516 69.076C388.318 71.855 390.898 75.032 393.479 75.23C396.06 75.429 398.244 80.987 398.244 82.774C398.244 84.561 400.428 85.355 401.817 84.164C403.207 82.973 402.214 77.414 404.199 75.429C406.184 73.444 408.566 72.451 412.338 73.444C412.338 73.444 412.428 58.732 409.361 52.599Z" fill="#263238" stroke="#263238" stroke-miterlimit="10" stroke-linecap="round" stroke-linejoin="round"/>
<path d="M379.98 113.744C379.98 113.744 384.546 111.56 388.914 109.377C393.281 107.193 397.252 101.635 397.649 101.039C398.046 100.443 395.465 108.384 391.892 111.759C388.319 115.134 380.179 118.707 380.179 118.707L379.98 113.744Z" fill="#263238" stroke="#263238" stroke-miterlimit="10" stroke-linecap="round" stroke-linejoin="round"/>
<path d="M376.009 98.458C376.009 98.458 381.568 98.458 385.34 94.488" stroke="#263238" stroke-miterlimit="10" stroke-linecap="round" stroke-linejoin="round"/>
<path d="M371.642 78.6051C371.642 78.6051 380.178 77.6121 382.759 77.6121C385.34 77.6121 386.332 77.8111 386.73 78.8031C387.127 79.7961 388.12 86.1481 386.333 89.1261C384.546 92.1041 377.201 91.9051 375.017 90.9131C372.833 89.9211 370.451 82.9731 371.642 78.6051Z" stroke="#263238" stroke-miterlimit="10" stroke-linecap="round" stroke-linejoin="round"/>
<path d="M386.73 78.804L402.413 77.811" stroke="#263238" stroke-miterlimit="10" stroke-linecap="round" stroke-linejoin="round"/>
<path d="M371.642 78.6049C371.642 78.6049 366.48 77.4139 365.488 79.2009C365.488 79.2009 359.334 78.6049 359.334 79.9949C359.334 81.3849 357.15 86.5459 363.701 88.5309" stroke="#263238" stroke-miterlimit="10" stroke-linecap="round" stroke-linejoin="round"/>
<path d="M377.002 83.5679C377.002 83.5679 378.987 85.9499 382.759 83.5679" stroke="#263238" stroke-miterlimit="10" stroke-linecap="round" stroke-linejoin="round"/>
<path d="M375.414 77.414C375.414 77.414 378.789 75.23 383.752 76.223" stroke="#263238" stroke-miterlimit="10" stroke-linecap="round" stroke-linejoin="round"/>
<path d="M413.178 110.14C413.178 110.14 409.264 121.695 406.468 139.961" stroke="#263238" stroke-width="3" stroke-miterlimit="10" stroke-linecap="round" stroke-linejoin="round"/>
<path d="M403.763 181.021C402.78 181.148 401.491 180.915 399.882 179.842" stroke="#263238" stroke-width="3" stroke-miterlimit="10" stroke-linecap="round" stroke-linejoin="round"/>
<path d="M409.208 150.04C409.208 150.04 410.002 164.023 406.189 179.596C406.189 179.596 405.401 180.81 403.762 181.022" stroke="#263238" stroke-miterlimit="10" stroke-linecap="round" stroke-linejoin="round"/>
<path d="M406.189 181.021C407.172 181.148 408.461 180.915 410.07 179.842" stroke="#263238" stroke-width="3" stroke-miterlimit="10" stroke-linecap="round" stroke-linejoin="round"/>
<path d="M400.743 150.04C400.743 150.04 399.948 164.023 403.762 179.596C403.762 179.596 404.55 180.81 406.189 181.022" stroke="#263238" stroke-miterlimit="10" stroke-linecap="round" stroke-linejoin="round"/>
<path d="M400.743 152.741C400.743 152.741 400.504 143.874 402.181 141.265C403.858 138.656 409.45 139.215 409.823 143.874C410.196 148.534 409.077 154.125 409.077 154.125" stroke="#263238" stroke-width="3" stroke-miterlimit="10" stroke-linecap="round" stroke-linejoin="round"/>
<path d="M374.225 117.781C374.225 117.781 363.976 140.349 364.535 177.438" stroke="#263238" stroke-width="3" stroke-miterlimit="10" stroke-linecap="round" stroke-linejoin="round"/>
<path d="M372.219 173.918C372.219 173.918 357.539 171.289 356.224 171.289C354.909 171.289 349.651 171.289 348.774 171.508C347.897 171.727 335.189 177.205 334.313 178.519C333.437 179.834 336.504 190.351 336.942 191.008C337.38 191.665 347.459 191.227 348.555 191.227C349.65 191.227 349.65 187.941 349.65 187.941C349.65 187.941 352.279 187.503 354.032 186.407C355.785 185.311 357.976 183.34 357.976 183.34L369.808 185.531L372.219 173.918Z" fill="white" stroke="#263238" stroke-miterlimit="10" stroke-linecap="round" stroke-linejoin="round"/>
<path d="M349.651 187.941L344.48 187.682L343.76 183.941" stroke="#263238" stroke-miterlimit="10" stroke-linecap="round" stroke-linejoin="round"/>
<path d="M362.033 172.143L360.45 183.941L363.616 184.373L365.486 172.862L362.033 172.143Z" fill="#263238" stroke="#263238" stroke-miterlimit="10" stroke-linecap="round" stroke-linejoin="round"/>
<path d="M366.19 172.196C366.113 172.867 364.995 173.291 363.693 173.142C362.39 172.994 361.396 172.329 361.473 171.658C361.549 170.987 362.668 170.563 363.97 170.712C365.273 170.861 366.267 171.525 366.19 172.196Z" fill="white" stroke="#263238" stroke-miterlimit="10" stroke-linecap="round" stroke-linejoin="round"/>
<path d="M418.231 150.036L418.669 175.452L368.713 173.261L367.398 193.857C367.398 193.857 429.405 206.565 433.129 206.346C436.854 206.127 446.056 204.593 449.343 201.526C452.629 198.459 451.972 182.245 451.972 182.245C451.972 182.245 446.494 137.11 443.646 130.755C440.798 124.401 418.668 116.952 417.792 116.732" fill="white"/>
<path d="M418.231 150.036L418.669 175.452L368.713 173.261L367.398 193.857C367.398 193.857 429.405 206.565 433.129 206.346C436.854 206.127 446.056 204.593 449.343 201.526C452.629 198.459 451.972 182.245 451.972 182.245C451.972 182.245 446.494 137.11 443.646 130.755C440.798 124.401 418.668 116.952 417.792 116.732" stroke="#263238" stroke-miterlimit="10" stroke-linecap="round" stroke-linejoin="round"/>
<path d="M418.669 175.452L437.074 176.329" stroke="#263238" stroke-miterlimit="10" stroke-linecap="round" stroke-linejoin="round"/>
<path d="M268.834 339.907H145.007C138.514 339.907 133.251 334.644 133.251 328.151V191.79C133.251 185.298 138.514 180.034 145.007 180.034H268.835C275.327 180.034 280.591 185.297 280.591 191.79V328.151C280.59 334.643 275.327 339.907 268.834 339.907Z" fill="#263238" stroke="#263238" stroke-miterlimit="10" stroke-linecap="round" stroke-linejoin="round"/>
<path d="M151.993 476.009H143.518L140.693 407.648H154.818L151.993 476.009Z" fill="#263238" stroke="#263238" stroke-miterlimit="10" stroke-linecap="round" stroke-linejoin="round"/>
<path d="M272.693 476.009H264.218L261.393 407.648H275.517L272.693 476.009Z" fill="#263238" stroke="#263238" stroke-miterlimit="10" stroke-linecap="round" stroke-linejoin="round"/>
<path d="M397.886 476.009H389.412L386.587 407.648H400.711L397.886 476.009Z" fill="#263238" stroke="#263238" stroke-miterlimit="10" stroke-linecap="round" stroke-linejoin="round"/>
<path d="M565.453 476.009H556.979L554.154 407.648H568.278L565.453 476.009Z" fill="#263238" stroke="#263238" stroke-miterlimit="10" stroke-linecap="round" stroke-linejoin="round"/>
<path d="M586.896 388.388H132.347V410.859H586.896V388.388Z" fill="white" stroke="#263238" stroke-miterlimit="10" stroke-linecap="round" stroke-linejoin="round"/>
<path d="M586.896 388.388H389.736V410.859H586.896V388.388Z" fill="white" stroke="#263238" stroke-miterlimit="10" stroke-linecap="round" stroke-linejoin="round"/>
<path d="M132.492 353.686H587.097C589.899 353.686 592.171 351.414 592.171 348.612V319.576C592.171 316.774 589.899 314.502 587.097 314.502H132.492C129.69 314.502 127.418 316.774 127.418 319.576V348.612C127.418 351.414 129.69 353.686 132.492 353.686Z" fill="white" stroke="#263238" stroke-miterlimit="10" stroke-linecap="round" stroke-linejoin="round"/>
<path d="M132.492 393.164H587.097C589.899 393.164 592.171 390.892 592.171 388.09V359.054C592.171 356.252 589.899 353.98 587.097 353.98H132.492C129.69 353.98 127.418 356.252 127.418 359.054V388.09C127.418 390.892 129.69 393.164 132.492 393.164Z" fill="white" stroke="#263238" stroke-miterlimit="10" stroke-linecap="round" stroke-linejoin="round"/>
<path d="M404.037 353.686H587.097C589.899 353.686 592.171 351.414 592.171 348.612V319.576C592.171 316.774 589.899 314.502 587.097 314.502H404.037C401.235 314.502 398.963 316.774 398.963 319.576V348.612C398.963 351.414 401.235 353.686 404.037 353.686Z" fill="white" stroke="#263238" stroke-miterlimit="10" stroke-linecap="round" stroke-linejoin="round"/>
<path d="M404.037 393.164H587.097C589.899 393.164 592.171 390.892 592.171 388.09V359.054C592.171 356.252 589.899 353.98 587.097 353.98H404.037C401.235 353.98 398.963 356.252 398.963 359.054V388.09C398.963 390.892 401.235 393.164 404.037 393.164Z" fill="white" stroke="#263238" stroke-miterlimit="10" stroke-linecap="round" stroke-linejoin="round"/>
<path d="M215.822 174.477C215.822 174.477 184.528 169.38 170.922 170.836C157.316 172.292 142.349 171.564 143.71 177.389C145.071 183.214 147.112 194.865 147.112 194.865C147.112 194.865 149.833 252.39 159.357 273.506C168.881 294.623 175.684 309.186 183.168 310.642C190.651 312.098 239.633 303.36 239.633 303.36C239.633 303.36 253.239 303.36 254.6 291.709C255.961 280.058 248.958 230.195 238.953 205.786C228.948 181.377 234.849 177.532 228.057 172.363C221.265 167.195 215.822 174.477 215.822 174.477Z" fill="white" stroke="#263238" stroke-miterlimit="10" stroke-linecap="round" stroke-linejoin="round"/>
<path d="M197.509 197.809C197.509 197.809 214.159 204.559 222.259 231.109" stroke="#263238" stroke-miterlimit="10" stroke-linecap="round" stroke-linejoin="round"/>
<path d="M202.909 180.71C202.909 180.71 212.359 186.11 222.259 218.96" stroke="#263238" stroke-miterlimit="10" stroke-linecap="round" stroke-linejoin="round"/>
<path d="M218.106 211.444C218.106 211.444 199.606 219.643 197.504 225.529C195.402 231.415 200.868 271.989 200.868 271.989C200.868 271.989 261.203 249.915 270.663 249.285C280.123 248.654 281.385 248.234 281.385 248.234C281.385 248.234 267.51 225.529 262.254 221.956C256.998 218.382 253.635 215.859 248.169 213.967C242.703 212.074 225.674 210.603 218.106 211.444Z" fill="white" stroke="#263238" stroke-miterlimit="10" stroke-linecap="round" stroke-linejoin="round"/>
<path d="M246.371 195.058L244.479 207.461L219.882 202.626L220.513 192.115C220.513 192.115 221.144 180.973 221.564 179.922C221.984 178.871 224.087 178.45 227.45 179.081C230.814 179.712 242.376 187.91 242.376 187.91L246.371 195.058Z" fill="white" stroke="#263238" stroke-miterlimit="10" stroke-linecap="round" stroke-linejoin="round"/>
<path d="M255.06 157.612C255.06 157.612 257.134 163.186 257.264 165.389C257.394 167.593 256.745 170.315 257.394 171.352C258.043 172.389 263.875 179.259 263.875 180.037C263.875 180.815 260.246 183.537 260.246 183.537C260.246 183.537 257.871 197.515 257.094 198.423C256.316 199.33 251.562 199.221 247.803 198.444C244.044 197.666 234.711 195.074 233.156 193.648C231.601 192.222 229.915 188.074 229.915 188.074C229.915 188.074 228.1 188.981 226.026 187.556C223.952 186.13 223.434 181.464 223.434 181.464C223.434 181.464 230.822 173.946 231.082 170.446C231.341 166.946 231.86 158.391 238.341 154.891C244.82 151.39 253.702 154.458 255.06 157.612Z" fill="white" stroke="#263238" stroke-miterlimit="10" stroke-linecap="round" stroke-linejoin="round"/>
<path d="M249.746 184.962C249.746 184.962 251.69 187.166 255.449 187.295" stroke="#263238" stroke-miterlimit="10" stroke-linecap="round" stroke-linejoin="round"/>
<path d="M249.098 168.371C249.098 168.371 250.783 166.556 253.894 166.945" stroke="#263238" stroke-miterlimit="10" stroke-linecap="round" stroke-linejoin="round"/>
<path d="M253.635 172.972C253.635 174.153 253.084 175.111 252.404 175.111C251.724 175.111 251.173 174.153 251.173 172.972C251.173 171.791 251.724 170.833 252.404 170.833C253.084 170.833 253.635 171.791 253.635 172.972Z" fill="#263238"/>
<path d="M240.265 158.64C240.265 158.64 238.352 165.016 238.14 168.205C237.927 171.393 237.927 174.794 236.014 175.644C234.101 176.494 223.686 183.933 223.686 183.933C223.686 183.933 222.411 188.396 224.324 189.884C226.237 191.372 227.3 191.584 227.3 191.584C227.3 191.584 227.3 193.71 225.812 193.922C224.324 194.135 222.411 194.347 222.411 194.347L224.324 195.197C224.324 195.197 222.624 197.11 221.136 197.535C219.648 197.96 217.098 198.598 214.547 197.535C211.996 196.472 206.683 194.984 206.258 192.009C205.833 189.033 205.195 179.256 205.195 176.068C205.195 172.88 202.857 167.566 203.92 161.19C204.983 154.814 221.774 141.423 226.662 140.148C231.551 138.873 246.429 142.274 246.429 142.274C246.429 142.274 258.119 145.462 259.819 148.013C261.519 150.564 261.519 155.24 261.519 155.24L255.993 153.752C255.993 153.752 257.056 154.602 257.056 156.303C257.056 158.003 256.418 160.767 256.418 160.767L250.042 156.091C250.042 156.091 246.641 158.641 246.004 159.067C245.366 159.492 242.178 161.405 242.178 161.405L242.391 156.942L240.265 158.64Z" fill="#263238" stroke="#263238" stroke-miterlimit="10" stroke-linecap="round" stroke-linejoin="round"/>
<path d="M227.545 212.348L232.192 260.932L242.754 257.13C242.754 257.13 241.909 243.611 237.262 231.782C232.615 219.953 233.46 213.616 233.46 213.616L227.545 212.348Z" fill="#0529BB" stroke="#263238" stroke-miterlimit="10" stroke-linecap="round" stroke-linejoin="round"/>
<path d="M230.757 211.112C230.757 211.112 240.474 226.743 243.431 234.77C246.388 242.797 252.725 273.215 252.725 273.215L275.538 268.145C275.538 268.145 260.752 238.15 254.415 228.855C248.078 219.561 242.586 211.956 242.586 211.956L230.757 211.112Z" fill="#0529BB" stroke="#263238" stroke-miterlimit="10" stroke-linecap="round" stroke-linejoin="round"/>
<path d="M227.871 200.739C227.871 200.739 217.78 197.713 217.149 199.415C216.518 201.117 214.626 213.03 216.308 214.354C217.99 215.678 223.035 217.569 235.018 217.758C247.001 217.947 250.154 218.325 250.785 217.191C251.416 216.056 250.575 210.762 250.785 207.925C250.995 205.088 250.154 203.954 248.683 203.387C247.212 202.819 227.871 200.739 227.871 200.739Z" fill="#0529BB" stroke="#263238" stroke-miterlimit="10" stroke-linecap="round" stroke-linejoin="round"/>
<path d="M325.288 259.806C325.288 259.806 298.328 254.029 288.699 251.622C279.07 249.215 238.148 262.214 227.075 264.621C216.002 267.028 197.226 272.805 183.264 290.137C169.302 307.469 169.784 405.46 169.302 407.867C168.821 410.274 192.411 422.31 209.261 421.347C226.111 420.384 238.629 416.051 253.072 417.977C267.515 419.903 297.364 434.346 315.659 430.494C333.954 426.642 347.434 424.235 358.025 424.235C368.617 424.235 370.061 428.087 384.504 424.235V314.208H521.232C521.232 314.208 505.345 287.248 495.716 283.396C486.087 279.544 453.35 285.803 441.795 282.915C430.241 280.026 397.984 274.249 391.244 270.879C384.504 267.509 370.061 260.287 357.544 257.399C345.027 254.51 325.288 259.806 325.288 259.806Z" fill="#0529BB" stroke="#263238" stroke-miterlimit="10" stroke-linecap="round" stroke-linejoin="round"/>
<path d="M417.832 285.377C420.184 286.471 421.734 287.169 422.057 287.169" stroke="#263238" stroke-miterlimit="10" stroke-linecap="round" stroke-linejoin="round"/>
<path d="M348.287 291.069C358.252 283.028 373.949 271.617 382.098 272.244C389.891 272.843 402.909 278.481 411.974 282.652" stroke="#263238" stroke-miterlimit="10" stroke-linecap="round" stroke-linejoin="round"/>
<path d="M339.25 298.723C339.25 298.723 341.768 296.445 345.652 293.224" stroke="#263238" stroke-miterlimit="10" stroke-linecap="round" stroke-linejoin="round"/>
<path d="M286.418 251.343C273.837 250.873 237.424 262.371 227.075 264.62C216.002 267.027 197.226 272.804 183.264 290.136C169.302 307.468 169.784 405.459 169.302 407.866C169.27 408.025 169.349 408.227 169.518 408.463C176.92 399.013 197.225 396.696 197.225 394.386C197.225 391.497 198.669 304.58 199.632 297.358C200.595 290.136 249.701 259.324 249.701 259.324L286.418 251.343Z" fill="#0529BB" stroke="#263238" stroke-miterlimit="10" stroke-linecap="round" stroke-linejoin="round"/>
<path d="M216.635 232.676L222.732 256.642C222.732 256.642 272.976 243.398 276.97 242.767C280.964 242.136 286.01 243.398 287.271 243.818C288.532 244.238 300.095 251.386 300.936 252.437C301.777 253.488 301.777 253.488 301.777 253.488C301.777 253.488 297.362 253.488 293.999 253.488C290.635 253.488 287.272 254.119 283.908 253.488C280.544 252.857 275.289 251.806 275.289 251.806C275.289 251.806 223.994 275.351 219.369 277.033C214.744 278.715 208.017 282.078 205.494 280.817C202.971 279.556 202.13 277.453 201.5 274.72C200.869 271.987 196.244 229.311 196.875 227.419C197.506 225.527 197.506 223.004 202.341 220.271C207.176 217.538 212.432 218.799 212.432 218.799" fill="white"/>
<path d="M216.635 232.676L222.732 256.642C222.732 256.642 272.976 243.398 276.97 242.767C280.964 242.136 286.01 243.398 287.271 243.818C288.532 244.238 300.095 251.386 300.936 252.437C301.777 253.488 301.777 253.488 301.777 253.488C301.777 253.488 297.362 253.488 293.999 253.488C290.635 253.488 287.272 254.119 283.908 253.488C280.544 252.857 275.289 251.806 275.289 251.806C275.289 251.806 223.994 275.351 219.369 277.033C214.744 278.715 208.017 282.078 205.494 280.817C202.971 279.556 202.13 277.453 201.5 274.72C200.869 271.987 196.244 229.311 196.875 227.419C197.506 225.527 197.506 223.004 202.341 220.271C207.176 217.538 212.432 218.799 212.432 218.799" stroke="#263238" stroke-miterlimit="10" stroke-linecap="round" stroke-linejoin="round"/>
<path d="M300.936 252.438C300.095 251.387 288.533 244.239 287.271 243.819C286.01 243.399 280.964 242.137 276.97 242.768C275.817 242.95 270.81 244.183 264.273 245.845L267.3 255.468C272.124 253.26 275.288 251.808 275.288 251.808C275.288 251.808 280.544 252.859 283.907 253.49C287.271 254.121 290.634 253.49 293.998 253.49C297.362 253.49 301.776 253.49 301.776 253.49C301.776 253.49 301.776 253.489 300.936 252.438Z" fill="white" stroke="#263238" stroke-miterlimit="10" stroke-linecap="round" stroke-linejoin="round"/>
<path d="M313.498 234.087C313.498 234.087 305.018 234.707 303.926 235.6C302.834 236.493 300.987 243.59 300.398 244.801C299.809 246.011 299.108 247.678 301.363 247.169C303.619 246.66 306.769 240.562 306.769 240.562L313.498 234.087Z" fill="white" stroke="#263238" stroke-miterlimit="10" stroke-linecap="round" stroke-linejoin="round"/>
<path d="M325.863 360.979C325.863 365.47 325.863 368.384 325.863 368.384" stroke="#263238" stroke-miterlimit="10" stroke-linecap="round" stroke-linejoin="round"/>
<path d="M331.553 309.044C331.553 309.044 325.863 310.67 325.863 313.108C325.863 314.711 325.863 338.1 325.863 353.934" stroke="#263238" stroke-miterlimit="10" stroke-linecap="round" stroke-linejoin="round"/>
<path d="M325.863 313.108C325.863 313.108 322.205 315.547 322.612 321.237C323.018 326.927 322.612 347.655 322.612 347.655" stroke="#263238" stroke-miterlimit="10" stroke-linecap="round" stroke-linejoin="round"/>
<path d="M258.801 365.142C258.801 367.186 258.801 368.384 258.801 368.384" stroke="#263238" stroke-miterlimit="10" stroke-linecap="round" stroke-linejoin="round"/>
<path d="M264.491 309.044C264.491 309.044 258.801 310.67 258.801 313.108C258.801 314.921 258.801 344.595 258.801 359.698" stroke="#263238" stroke-miterlimit="10" stroke-linecap="round" stroke-linejoin="round"/>
<path d="M258.801 313.108C258.801 313.108 255.143 315.547 255.549 321.237C255.955 326.927 255.549 347.655 255.549 347.655" stroke="#263238" stroke-miterlimit="10" stroke-linecap="round" stroke-linejoin="round"/>
<path d="M151.684 318.646H43.7629V476.009H151.684V318.646Z" fill="white" stroke="#263238" stroke-miterlimit="10" stroke-linecap="round" stroke-linejoin="round"/>
<path d="M151.683 318.646H82.495V476.009H151.683V318.646Z" fill="white" stroke="#263238" stroke-miterlimit="10" stroke-linecap="round" stroke-linejoin="round"/>
<path d="M146.265 330.117H87.9139V362.201H146.265V330.117Z" fill="white" stroke="#263238" stroke-miterlimit="10" stroke-linecap="round" stroke-linejoin="round"/>
<path d="M128.361 343.103H105.817V349.215H128.361V343.103Z" fill="#263238" stroke="#263238" stroke-miterlimit="10" stroke-linecap="round" stroke-linejoin="round"/>
<path d="M146.265 374.056H87.9139V406.14H146.265V374.056Z" fill="white" stroke="#263238" stroke-miterlimit="10" stroke-linecap="round" stroke-linejoin="round"/>
<path d="M128.361 387.043H105.817V393.155H128.361V387.043Z" fill="#263238" stroke="#263238" stroke-miterlimit="10" stroke-linecap="round" stroke-linejoin="round"/>
<path d="M146.265 417.996H87.9139V450.08H146.265V417.996Z" fill="white" stroke="#263238" stroke-miterlimit="10" stroke-linecap="round" stroke-linejoin="round"/>
<path d="M128.361 430.982H105.817V437.094H128.361V430.982Z" fill="#263238" stroke="#263238" stroke-miterlimit="10" stroke-linecap="round" stroke-linejoin="round"/>
<path d="M155.151 313.545H39.407V323.18H155.151V313.545Z" fill="white" stroke="#263238" stroke-miterlimit="10" stroke-linecap="round" stroke-linejoin="round"/>
<path d="M155.151 313.545H74.986V323.18H155.151V313.545Z" fill="white" stroke="#263238" stroke-miterlimit="10" stroke-linecap="round" stroke-linejoin="round"/>
<path d="M105.396 313.54C110.037 313.54 114.376 310.986 116.402 306.81C118.363 302.766 119.497 297.99 119.497 292.872C119.497 286.739 117.87 281.097 115.142 276.618C110.521 269.031 108.373 260.193 108.373 251.309V250.799H109.356C110.477 250.799 111.498 249.992 111.61 248.877C111.738 247.594 110.735 246.513 109.478 246.513H88.631C87.51 246.513 86.489 247.32 86.377 248.435C86.249 249.718 87.252 250.799 88.509 250.799H89.614V251.309C89.614 260.193 87.467 269.031 82.845 276.618C80.117 281.097 78.49 286.739 78.49 292.872C78.49 297.792 79.537 302.395 81.36 306.336C83.389 310.723 87.77 313.54 92.603 313.54H105.396Z" fill="white" stroke="#263238" stroke-miterlimit="10" stroke-linecap="round" stroke-linejoin="round"/>
<path d="M126.592 192.794H71.394V256.864H126.592V192.794Z" fill="white" stroke="#263238" stroke-miterlimit="10" stroke-linecap="round" stroke-linejoin="round"/>
<path d="M27.225 476.009H716.423" stroke="#263238" stroke-miterlimit="10" stroke-linecap="round" stroke-linejoin="round"/>
</svg>
