<svg width="1350" height="427" viewBox="0 0 1350 427" fill="none" xmlns="http://www.w3.org/2000/svg">
<path d="M1349.87 227.981C1349.87 232.672 1349.87 237.363 1349.87 242.197C1248.05 242.197 1146.24 242.197 1041.34 242.197C1041.34 251.579 1041.34 260.961 1041.34 270.628C1032.08 275.319 1022.83 280.01 1013.29 284.844C1003.17 308.209 993.747 331.904 985.242 355.922C760.349 357.608 536.613 355.366 312.09 341.706C310.355 350.502 308.619 359.298 306.831 368.36C298.066 398.569 298.066 398.569 270.018 427C234.958 426.112 234.958 426.112 199.898 412.784C177.508 371.714 171.85 346.105 171.85 299.059C148.711 299.059 125.571 299.059 101.73 299.059C92.4746 317.824 83.2187 336.588 73.6824 355.922C31.6105 341.706 31.6105 341.706 14.9569 312.386C-6.22035 234.776 -8.02418 157.719 31.6105 85.8242C45.4941 76.4419 59.3779 67.0595 73.6824 57.3929C79.4673 64.4296 85.2522 71.4664 91.2124 78.7164C117.466 106.207 117.466 106.207 171.85 100.04C177.635 86.2596 183.42 72.4793 189.38 58.2814C213.922 14.7459 213.922 14.7459 244.6 2.30721C252.988 1.72082 261.376 1.13442 270.018 0.530257C276.302 14.44 282.585 28.3497 289.058 42.6809C309.527 73.4953 319.727 84.206 355.689 93.3169C394.097 95.4258 431.797 95.0128 470.244 93.765C499.141 93.6805 528.038 93.5972 556.935 93.5151C602.424 92.8616 647.907 92.0413 693.392 91.1447C737.343 90.4241 781.269 90.2971 825.226 90.2111C838.799 89.7409 852.372 89.2707 866.356 88.7862C960.106 88.7994 960.106 88.7994 993.219 122.296C1004.74 140.104 1015.77 158.244 1026.25 176.698C1040.7 203.375 1040.7 203.375 1077.62 213.456C1090.18 214.126 1102.74 214.796 1115.68 215.487C1129.37 216.449 1143.06 217.411 1157.17 218.402C1171.3 218.924 1185.43 219.446 1199.98 219.985C1214.38 220.892 1228.78 221.799 1243.62 222.733C1279.03 224.904 1314.41 226.638 1349.87 227.981Z" fill="url(#paint0_linear_1220_2065)"/>
<defs>
<linearGradient id="paint0_linear_1220_2065" x1="1539" y1="225" x2="0.134078" y2="213.765" gradientUnits="userSpaceOnUse">
<stop stop-color="#FFA2A2"/>
<stop offset="1" stop-color="#AD0505"/>
</linearGradient>
</defs>
</svg>
