<svg width="294" height="266" viewBox="0 0 294 266" fill="none" xmlns="http://www.w3.org/2000/svg">
<path d="M161.827 13.8968C185.24 28.2735 201.717 47.0488 210.221 71.6705C215.327 95.9329 212.169 116.511 200.845 138.811C197.594 145.44 195.521 151.668 193.83 158.74C200.66 163.597 207.016 167.952 214.891 171.314C228.08 177.597 237.771 187.535 248.281 196.962C250.621 198.974 252.961 200.987 255.372 203.06C257.566 205.023 259.759 206.985 262.019 209.007C264.033 210.787 266.046 212.566 268.121 214.399C272.062 219.895 272.062 219.895 271.592 226.46C266.376 237.125 257.282 241.853 247.17 248.864C237.287 240.106 227.446 231.312 217.611 222.511C214.817 220.036 212.023 217.561 209.145 215.011C206.452 212.594 203.759 210.177 200.984 207.687C198.507 205.479 196.031 203.271 193.479 200.996C186.392 193.815 181.491 186.293 176.05 178.052C172.53 176.459 172.53 176.459 168.939 174.833C162.12 177.195 162.12 177.195 154.937 180.868C129.199 193.323 101.717 195.188 73.2746 188.5C42.5612 177.84 24.7458 162.17 8.91992 136.208C-1.72658 112.002 -3.56836 84.0258 7.36418 59.5625C21.9234 34.2301 43.1619 15.691 71.5939 3.43593C103.574 -2.99674 133.189 -0.878077 161.827 13.8968ZM37.3677 46.0841C21.2339 66.5293 17.2054 85.8418 19.5878 110.459C24.3464 131.521 37.1611 148.152 55.1475 161.958C78.9972 174.661 103.153 178.83 130.156 173.312C154.418 166.259 172.75 153.125 184.496 132.587C193.815 114.324 197.732 96.4206 191.149 76.662C180.928 52.2809 169.437 36.8827 144.047 23.553C105.034 7.8583 65.4989 18.2942 37.3677 46.0841Z" fill="#2300FF" fill-opacity="0.1"/>
<path d="M101.375 39.6466C111.936 39.6466 122.497 39.6466 133.379 39.6466C133.379 53.455 133.379 67.2633 133.379 81.4901C148.634 81.4901 163.889 81.4901 179.606 81.4901C179.954 101.293 179.954 101.293 179.606 107.24C176.05 110.459 176.05 110.459 166.369 110.773C155.372 110.668 144.375 110.563 133.379 110.459C133.379 123.205 133.379 135.951 133.379 149.083C122.817 149.083 112.256 149.083 101.375 149.083C101.375 136.337 101.375 123.591 101.375 110.459C87.2934 110.459 73.2117 110.459 58.7034 110.459C58.7034 100.899 58.7034 91.3394 58.7034 81.4901C72.785 81.4901 86.8666 81.4901 101.375 81.4901C101.375 67.6817 101.375 53.8734 101.375 39.6466Z" fill="#2300FF" fill-opacity="0.1"/>
<path d="M55.1475 42.8653C57.4944 43.9275 59.8413 44.9897 62.2594 46.0841C60.7731 55.5016 58.9229 61.8549 53.3695 70.0233C45.6591 81.9461 42.8044 91.2241 46.4103 104.914C50.5409 116.624 54.677 125.913 62.2594 136.208C60.9259 143.249 60.9259 143.249 58.7034 149.083C44.2801 143.516 39.4303 137.76 32.9643 125.106C26.3194 104.965 27.0554 83.3085 34.7006 63.5859C40.8776 55.7982 47.2652 49.262 55.1475 42.8653Z" fill="#2300FF" fill-opacity="0.1"/>
<path d="M275.618 229.552C286.285 232.77 286.285 232.77 293.397 242.427C292.245 253.12 291.236 257.258 282.729 264.958C274.062 265.963 274.062 265.963 264.95 264.958C258.504 260.13 258.504 260.13 254.282 255.301C259.411 244.467 266.133 237.565 275.618 229.552Z" fill="#2300FF" fill-opacity="0.1"/>
</svg>
