<svg width="482" height="482" viewBox="0 0 482 482" fill="none" xmlns="http://www.w3.org/2000/svg">
<path d="M402.653 49.9737C373.299 31.7156 338.113 29.7297 307.111 44.932C280.707 57.84 260.164 79.7902 233.731 92.7078C197.62 110.378 157.971 120.037 121.464 136.965C84.9573 153.893 50.0123 180.422 36.9212 218.481C21.4972 263.432 26.9149 316.288 50.504 357.384C88.8519 424.179 164.911 447.903 238.137 447.036C392.869 445.214 472.572 257.812 447.325 123.132C441.811 93.9514 428.373 65.9665 402.653 49.9737Z" fill="#0529BB"/>
<path opacity="0.7" d="M402.653 49.9737C373.299 31.7156 338.113 29.7297 307.111 44.932C280.707 57.84 260.164 79.7902 233.731 92.7078C197.62 110.378 157.971 120.037 121.464 136.965C84.9573 153.893 50.0123 180.422 36.9212 218.481C21.4972 263.432 26.9149 316.288 50.504 357.384C88.8519 424.179 164.911 447.903 238.137 447.036C392.869 445.214 472.572 257.812 447.325 123.132C441.811 93.9514 428.373 65.9665 402.653 49.9737Z" fill="white"/>
<path d="M116.268 299.1L108.17 300.566L106.58 291.793L96.9591 293.538L98.5497 302.31L90.4617 303.776L92.2644 313.734L100.352 312.269L101.943 321.041L111.564 319.306L109.973 310.524L118.071 309.058L116.268 299.1Z" stroke="#0529BB" stroke-linecap="round" stroke-linejoin="round"/>
<path d="M197.109 164.719L189.349 161.981L192.318 153.575L183.102 150.317L180.133 158.723L172.373 155.985L169.008 165.528L176.759 168.266L173.79 176.682L183.006 179.931L185.985 171.525L193.735 174.262L197.109 164.719Z" stroke="#0529BB" stroke-linecap="round" stroke-linejoin="round"/>
<path d="M392.84 265.187L385.571 269.033L381.397 261.148L372.75 265.717L376.924 273.602L369.655 277.449L374.389 286.395L381.657 282.548L385.831 290.424L394.478 285.855L390.304 277.969L397.573 274.123L392.84 265.187Z" stroke="#0529BB" stroke-linecap="round" stroke-linejoin="round"/>
<path d="M82.4509 278.201C85.7092 278.201 88.3506 275.559 88.3506 272.301C88.3506 269.043 85.7092 266.401 82.4509 266.401C79.1926 266.401 76.5512 269.043 76.5512 272.301C76.5512 275.559 79.1926 278.201 82.4509 278.201Z" stroke="#0529BB" stroke-linecap="round" stroke-linejoin="round"/>
<path d="M174.349 193.427C174.349 193.736 174.257 194.037 174.086 194.294C173.914 194.551 173.67 194.751 173.385 194.869C173.1 194.988 172.786 195.019 172.483 194.958C172.18 194.898 171.901 194.749 171.683 194.531C171.465 194.313 171.316 194.034 171.256 193.731C171.195 193.428 171.226 193.114 171.345 192.829C171.463 192.544 171.663 192.3 171.92 192.128C172.177 191.957 172.478 191.865 172.787 191.865C173.202 191.865 173.599 192.03 173.892 192.322C174.185 192.615 174.349 193.012 174.349 193.427Z" stroke="#0529BB" stroke-linecap="round" stroke-linejoin="round"/>
<path d="M102.888 166.637C102.888 167.728 102.564 168.794 101.958 169.701C101.353 170.607 100.491 171.314 99.4838 171.731C98.4762 172.149 97.3675 172.258 96.2979 172.045C95.2283 171.832 94.2458 171.307 93.4746 170.536C92.7034 169.765 92.1783 168.783 91.9655 167.713C91.7528 166.643 91.8619 165.535 92.2793 164.527C92.6966 163.519 93.4034 162.658 94.3102 162.052C95.217 161.446 96.2831 161.123 97.3736 161.123C98.8353 161.126 100.236 161.707 101.27 162.741C102.303 163.774 102.885 165.175 102.888 166.637Z" stroke="#0529BB" stroke-linecap="round" stroke-linejoin="round"/>
<path d="M345.845 241.328C345.845 241.946 345.661 242.549 345.318 243.063C344.975 243.577 344.487 243.977 343.917 244.213C343.346 244.45 342.718 244.512 342.112 244.391C341.506 244.271 340.95 243.973 340.513 243.536C340.076 243.1 339.778 242.543 339.658 241.937C339.537 241.331 339.599 240.703 339.836 240.133C340.072 239.562 340.472 239.074 340.986 238.731C341.5 238.388 342.104 238.204 342.721 238.204C343.55 238.204 344.344 238.534 344.93 239.119C345.516 239.705 345.845 240.499 345.845 241.328Z" stroke="#0529BB" stroke-linecap="round" stroke-linejoin="round"/>
<path d="M314.274 146.133C318.134 146.133 321.263 143.004 321.263 139.144C321.263 135.284 318.134 132.155 314.274 132.155C310.414 132.155 307.285 135.284 307.285 139.144C307.285 143.004 310.414 146.133 314.274 146.133Z" stroke="#0529BB" stroke-linecap="round" stroke-linejoin="round"/>
<path d="M271.241 201.968C271.607 202.517 282.664 204.725 288.4 213.063C291.737 217.854 294.537 222.997 296.748 228.401C296.748 228.401 306.34 234.107 311.256 238.812C316.173 243.516 322.034 249.763 326.555 253.04C331.076 256.318 340.379 262.536 342.721 269.814C342.721 269.814 328.772 308.017 324.829 316.462C320.887 324.907 311.16 342.827 311.16 342.827L293.808 416.544H193.157L189.725 391.259C189.725 391.259 158.877 385.205 145.988 373.907C145.988 373.907 144.774 345.951 150.162 321.012C155.551 296.073 173.877 244.22 186.293 228.381C186.293 228.381 206.122 218.896 223.619 215.849C223.619 215.849 234.975 206.874 242.407 205.92C249.84 204.966 271.241 201.968 271.241 201.968Z" fill="white"/>
<path d="M191.084 402.653C200.02 404.359 207.809 405.834 216.91 405.728C226.01 405.622 235.303 403.579 242.745 398.363C244.183 397.167 245.812 396.222 247.565 395.568C251.517 394.459 255.431 397.072 259.355 398.286C264.329 399.829 269.785 399.096 274.663 397.245C279.541 395.394 283.927 392.512 288.275 389.639C287.632 398.508 287.423 407.393 287.648 416.294L293.846 416.544L309.724 346.683C309.724 346.683 282.568 378.225 269.332 387.644L243.94 381.108C243.94 381.108 241.549 383.094 236.517 384.096C236.517 384.096 234.213 392.955 221.257 392.975C208.301 392.994 189.725 391.259 189.725 391.259L191.084 402.653Z" fill="#0529BB"/>
<path opacity="0.5" d="M191.084 402.653C200.02 404.359 207.809 405.834 216.91 405.728C226.01 405.622 235.303 403.579 242.745 398.363C244.183 397.167 245.812 396.222 247.565 395.568C251.517 394.459 255.431 397.072 259.355 398.286C264.329 399.829 269.785 399.096 274.663 397.245C279.541 395.394 283.927 392.512 288.275 389.639C287.632 398.508 287.423 407.393 287.648 416.294L293.846 416.544L309.724 346.683C309.724 346.683 282.568 378.225 269.332 387.644L243.94 381.108C243.94 381.108 241.549 383.094 236.517 384.096C236.517 384.096 234.213 392.955 221.257 392.975C208.301 392.994 189.725 391.259 189.725 391.259L191.084 402.653Z" fill="white"/>
<path d="M165.066 272.301C165.066 272.301 153.276 329.534 153.874 349.19C153.874 349.19 169.895 344.698 181.078 349.19C181.078 349.19 162.048 347.069 153.854 355.793C145.66 364.517 170.879 387.441 221.334 382.785C221.334 382.785 231.399 385.937 236.508 384.087C236.508 384.087 235.139 393.206 221.248 392.965C207.414 392.416 166.946 392.078 145.979 373.916C145.988 373.926 143.347 321.311 165.066 272.301Z" fill="#0529BB"/>
<path opacity="0.6" d="M165.066 272.301C165.066 272.301 153.276 329.534 153.874 349.19C153.874 349.19 169.895 344.698 181.078 349.19C181.078 349.19 162.048 347.069 153.854 355.793C145.66 364.517 170.879 387.441 221.334 382.785C221.334 382.785 231.399 385.937 236.508 384.087C236.508 384.087 235.139 393.206 221.248 392.965C207.414 392.416 166.946 392.078 145.979 373.916C145.988 373.926 143.347 321.311 165.066 272.301Z" fill="white"/>
<path d="M189.175 283.271C189.175 283.271 192.655 308.615 198.276 313.917C203.896 319.219 230.088 317.484 240.46 323.2C240.46 323.2 250.225 306.282 267.886 295.697L243.94 333.399L223.243 328.512L197.977 324.656L195.856 329.534H192.058C192.058 329.534 191.634 302.484 189.175 283.271Z" fill="#0529BB"/>
<path opacity="0.5" d="M189.175 283.271C189.175 283.271 192.655 308.615 198.276 313.917C203.896 319.219 230.088 317.484 240.46 323.2C240.46 323.2 250.225 306.282 267.886 295.697L243.94 333.399L223.243 328.512L197.977 324.656L195.856 329.534H192.058C192.058 329.534 191.634 302.484 189.175 283.271Z" fill="white"/>
<path d="M288.169 231.649C298.994 238.021 300.209 245.203 302.436 250.331C296.806 251.45 290.983 252.645 286.337 256.009C280.553 260.213 277.42 267.173 274.991 273.93C272.693 280.325 270.761 286.846 269.207 293.461C274.439 284.008 281.877 275.959 290.887 269.997C296.083 266.565 302.503 263.799 308.432 265.736C303.458 267.847 297.828 270.701 296.777 276.003C296.57 276.883 296.607 277.803 296.883 278.663C297.77 281.16 300.874 281.835 303.226 283.05C307.815 285.411 310.206 290.762 310.408 295.948C310.61 301.134 309.02 306.147 307.449 311.054C306.067 315.353 304.685 319.653 303.303 323.952C301.539 329.447 299.746 335.019 296.555 339.839C293.364 344.659 288.573 348.698 282.876 349.643C280.494 350.102 278.029 349.823 275.81 348.843C274.128 347.928 272.564 346.811 271.154 345.517C264.319 339.997 256.105 336.45 247.401 335.26C258.603 342.663 263.905 356.111 268.551 368.711C266.418 364.976 263.343 361.865 259.634 359.688C258.683 359.026 257.554 358.669 256.395 358.666C253.349 358.907 252.385 362.792 250.553 365.221C248.355 368.113 244.335 369.145 240.73 368.682C237.125 368.219 233.809 366.532 230.57 364.826L189.59 343.695L186.698 352.371C186.698 352.371 219.339 378.399 269.351 387.605C269.351 387.605 301.838 361.934 313.348 339.174C324.858 316.414 342.741 269.766 342.741 269.766C342.741 269.766 336.195 257.369 324.974 250.9C324.974 250.9 316.597 246.938 314.833 242.041C313.069 237.144 297.327 228.69 297.327 228.69C297.327 228.69 299.37 233.915 288.169 231.649Z" fill="#0529BB"/>
<path opacity="0.6" d="M288.169 231.649C298.994 238.021 300.209 245.203 302.436 250.331C296.806 251.45 290.983 252.645 286.337 256.009C280.553 260.213 277.42 267.173 274.991 273.93C272.693 280.325 270.761 286.846 269.207 293.461C274.439 284.008 281.877 275.959 290.887 269.997C296.083 266.565 302.503 263.799 308.432 265.736C303.458 267.847 297.828 270.701 296.777 276.003C296.57 276.883 296.607 277.803 296.883 278.663C297.77 281.16 300.874 281.835 303.226 283.05C307.815 285.411 310.206 290.762 310.408 295.948C310.61 301.134 309.02 306.147 307.449 311.054C306.067 315.353 304.685 319.653 303.303 323.952C301.539 329.447 299.746 335.019 296.555 339.839C293.364 344.659 288.573 348.698 282.876 349.643C280.494 350.102 278.029 349.823 275.81 348.843C274.128 347.928 272.564 346.811 271.154 345.517C264.319 339.997 256.105 336.45 247.401 335.26C258.603 342.663 263.905 356.111 268.551 368.711C266.418 364.976 263.343 361.865 259.634 359.688C258.683 359.026 257.554 358.669 256.395 358.666C253.349 358.907 252.385 362.792 250.553 365.221C248.355 368.113 244.335 369.145 240.73 368.682C237.125 368.219 233.809 366.532 230.57 364.826L189.59 343.695L186.698 352.371C186.698 352.371 219.339 378.399 269.351 387.605C269.351 387.605 301.838 361.934 313.348 339.174C324.858 316.414 342.741 269.766 342.741 269.766C342.741 269.766 336.195 257.369 324.974 250.9C324.974 250.9 316.597 246.938 314.833 242.041C313.069 237.144 297.327 228.69 297.327 228.69C297.327 228.69 299.37 233.915 288.169 231.649Z" fill="white"/>
<path d="M284.727 142.913C284.727 142.913 286.915 117.396 275.916 114.957C264.917 112.518 258.738 102.425 258.738 102.425L219.715 113.318L213.661 136.782L217.517 148.658C217.517 148.658 218.327 159.677 218.481 165.124C218.635 170.57 218.481 174.764 222.607 181.377C226.733 187.99 230.57 194.555 239.487 200.271V215.3C239.487 215.3 233.972 231.389 237.019 241.26C237.019 241.26 238.841 243.188 243.873 240.296C248.905 237.404 270.431 223.021 277.94 208.002L280.273 169.818C280.273 169.818 286.472 170.782 289.142 165.133C293.066 159.61 292.911 153.17 291.388 147.926C289.865 142.682 283.31 146.075 283.31 146.075L284.727 142.913Z" fill="#999999"/>
<path d="M239.911 180.326C241.014 179.124 242.374 178.187 243.889 177.583C245.405 176.979 247.036 176.723 248.664 176.836C248.664 176.836 253.358 169.423 258.304 170.782C258.304 170.782 259.827 178.639 253.898 181.733C246.186 185.753 239.911 180.326 239.911 180.326Z" fill="#737373"/>
<path d="M225.412 110.07C225.412 110.07 216.071 122.341 216.611 135.134C217.151 147.926 219.011 156.997 218.471 166.868C217.931 176.74 228.343 193.272 239.014 199.934C246.986 204.918 256.983 204.069 264.743 198.97C273.419 193.186 278.191 182.794 279.936 172.816C280.109 171.852 280.244 170.888 280.341 169.847" stroke="#263238" stroke-linecap="round" stroke-linejoin="round"/>
<path d="M239.014 199.943C239.014 199.943 240.528 213.767 239.014 218.5C237.346 223.696 235.332 235.794 237.086 241.26C238.841 246.726 271.665 223.754 278.008 207.993C278.008 207.993 278.885 177.366 281.074 169.712" stroke="#263238" stroke-linecap="round" stroke-linejoin="round"/>
<path d="M238.108 179.989C238.108 179.989 253.04 184.211 259.152 168.797" stroke="#263238" stroke-linecap="round" stroke-linejoin="round"/>
<path d="M239.313 203.269C239.313 203.269 242.494 213.131 249.358 213.719C256.222 214.307 273.39 200.551 279.242 184.346V176.239C279.242 176.239 274.422 197.447 260.309 201.303C246.196 205.159 239.593 200.252 239.593 200.252L239.313 203.269Z" fill="#263238"/>
<path d="M258.294 170.782C251.662 170.32 248.654 176.836 248.654 176.836C247.02 176.637 245.361 176.852 243.831 177.462C242.302 178.072 240.95 179.057 239.901 180.326C241.535 181.792 243.544 182.775 245.704 183.166C247.864 183.558 250.09 183.342 252.134 182.543C259.673 179.921 258.294 170.782 258.294 170.782Z" stroke="#263238" stroke-linecap="round" stroke-linejoin="round"/>
<path d="M241.665 141.708C241.747 144.766 241.612 147.827 241.26 150.866C240.904 153.594 239.641 156.207 238.59 158.771C237.626 161.104 236.016 164.69 237.356 167.148C238.879 169.934 243.94 167.148 243.94 167.148" stroke="#263238" stroke-linecap="round" stroke-linejoin="round"/>
<path d="M247.054 166.57C248.76 166.801 251.18 166.57 251.662 163.61" stroke="#263238" stroke-linecap="round" stroke-linejoin="round"/>
<path d="M252.568 138.026C254.218 136.452 256.41 135.574 258.689 135.574C260.969 135.574 263.161 136.452 264.811 138.026" stroke="#263238" stroke-width="2" stroke-linecap="round" stroke-linejoin="round"/>
<path d="M233.114 140.436C233.114 140.436 228.593 134.652 222.674 140.436" stroke="#263238" stroke-width="2" stroke-linecap="round" stroke-linejoin="round"/>
<path d="M276.793 155.059C276.793 155.059 281.951 142.672 288.679 145.333C293.316 147.174 293.596 155.175 291.138 160.757C288.679 166.338 287.446 172.026 279.252 168.845" stroke="#263238" stroke-linecap="round" stroke-linejoin="round"/>
<path d="M277.709 153.16C277.709 153.16 272.754 151.406 271.838 143.356C270.923 135.307 275.858 127.248 274.027 121.464C272.195 115.68 257.764 118.572 254.477 108.489C254.477 108.489 243.641 116.567 222.665 114.832C222.665 114.832 218.24 122.37 217.469 126.978C216.436 134.183 216.462 141.5 217.546 148.697C217.546 148.948 217.633 149.189 217.681 149.439C219.185 157.286 211.694 138.758 211.897 130.844C212.099 122.929 207.327 112.875 213.545 105.385C219.763 97.8942 242.562 93.508 247.054 89.9894C251.546 86.4708 260.28 95.8409 270.373 99.292C280.466 102.743 288.834 106.859 287.561 121.175C286.289 135.49 287.629 137.409 287.687 144.947C287.687 144.966 283.021 143.212 277.709 153.16Z" fill="#263238"/>
<path d="M258.709 148.456C258.709 150.384 257.966 151.984 257.041 151.984C256.116 151.984 255.383 150.403 255.383 148.456C255.383 146.509 256.125 144.938 257.041 144.938C257.957 144.938 258.709 146.528 258.709 148.456Z" fill="#263238"/>
<path d="M233.115 148.456C233.115 150.384 232.372 151.984 231.456 151.984C230.541 151.984 229.798 150.403 229.798 148.456C229.798 146.509 230.541 144.938 231.456 144.938C232.372 144.938 233.115 146.528 233.115 148.456Z" fill="#263238"/>
<path d="M252.568 153.16C252.568 153.16 256.009 156.814 260.367 157.335" stroke="#263238" stroke-linecap="round" stroke-linejoin="round"/>
<path d="M229.124 157.335C229.124 157.335 235.418 156.891 236.836 153.16" stroke="#263238" stroke-linecap="round" stroke-linejoin="round"/>
<path d="M243.757 243.603C248.442 240.624 254.641 241.742 259.769 243.853C262.584 245.02 265.264 246.485 268.069 247.709C269.456 248.323 270.887 248.832 272.349 249.233C275.868 250.148 274.605 245.781 274.403 243.825C274.113 241.019 273.911 238.204 273.574 235.418C273.435 234.842 273.503 234.234 273.766 233.703C274.112 233.274 274.596 232.977 275.135 232.864C281.314 230.936 287.976 231.784 294.415 231.9C295 231.969 295.592 231.858 296.112 231.582C297.076 230.955 296.97 229.538 296.71 228.42C294.483 218.896 286.626 209.419 278.085 204.657" stroke="#263238" stroke-linecap="round" stroke-linejoin="round"/>
<path d="M239.554 206.2C235.303 207.973 230.936 209.815 227.273 212.533C225.944 213.502 224.719 214.607 223.619 215.83C222.733 216.673 222.176 217.804 222.048 219.021C222.071 219.587 222.221 220.14 222.487 220.64C222.752 221.141 223.126 221.576 223.581 221.913C224.228 222.445 224.94 222.892 225.701 223.243C227.475 224.082 229.557 224.901 230.309 226.685C230.492 227.058 230.559 227.478 230.502 227.89C230.406 228.251 230.221 228.583 229.962 228.854C228.497 230.637 225.913 232.016 226.106 234.319C226.232 236.103 228.034 237.211 229.634 238.002C231.235 238.792 233.105 239.612 233.654 241.318" stroke="#263238" stroke-linecap="round" stroke-linejoin="round"/>
<path d="M214.384 115.805C215.011 111.949 219.04 109.462 222.915 108.836C226.791 108.209 230.772 108.836 234.676 108.498C237.941 108.176 241.099 107.156 243.937 105.508C246.774 103.859 249.224 101.622 251.122 98.9449" stroke="white" stroke-linecap="round" stroke-linejoin="round"/>
<path d="M218.77 104.97C225.769 100.834 235.602 105.134 242.427 100.719C244.358 99.3126 246.04 97.592 247.401 95.6288" stroke="white" stroke-linecap="round" stroke-linejoin="round"/>
<path d="M308.046 263.172C282.982 268.175 273.631 286.616 273.631 286.616L243.94 333.38" stroke="#263238" stroke-linecap="round" stroke-linejoin="round"/>
<path d="M286.857 258.121C288.937 256.194 291.293 254.589 293.846 253.359" stroke="#263238" stroke-linecap="round" stroke-linejoin="round"/>
<path d="M269.332 293.422C269.332 293.422 272.494 276.533 281.575 264.088" stroke="#263238" stroke-linecap="round" stroke-linejoin="round"/>
<path d="M192.058 329.457C192.058 329.457 190.756 277.719 186.274 269.814" stroke="#263238" stroke-linecap="round" stroke-linejoin="round"/>
<path d="M296.748 228.401C296.748 228.401 311.208 237.077 317.628 245.232C324.049 253.387 339.222 258.805 342.692 269.814C342.692 269.814 322.709 332.782 301.771 355.542C280.832 378.303 269.303 387.644 269.303 387.644C269.303 387.644 218.934 378.891 186.264 351.455L197.948 324.608C197.948 324.608 230.888 328.772 243.911 333.399C256.935 338.027 269.303 366.05 269.303 366.05" stroke="#263238" stroke-linecap="round" stroke-linejoin="round"/>
<path d="M243.94 333.399C243.94 333.399 266.999 337.882 274.489 348.38" stroke="#263238" stroke-linecap="round" stroke-linejoin="round"/>
<path d="M310.292 344.196L293.846 416.545H193.157L189.725 391.259" stroke="#263238" stroke-linecap="round" stroke-linejoin="round"/>
<path d="M236.517 384.096C230.955 395.491 223.619 392.975 223.619 392.975C166.888 395.124 145.988 373.926 145.988 373.926C145.988 373.926 143.096 344.109 154.25 303.872C165.403 263.635 186.293 228.401 186.293 228.401C195.557 222.241 216.225 217.43 222.057 216.158L223.619 215.83" stroke="#263238" stroke-linecap="round" stroke-linejoin="round"/>
<path d="M223.648 392.975C223.648 392.975 220.65 392.483 221.411 372.605" stroke="#263238" stroke-linecap="round" stroke-linejoin="round"/>
<path d="M187.826 352.728C187.826 352.728 173.655 347.734 156.101 359.881" stroke="#263238" stroke-linecap="round" stroke-linejoin="round"/>
<path d="M159.282 348.38C159.282 348.38 177.848 342.856 186.274 351.706" stroke="#263238" stroke-linecap="round" stroke-linejoin="round"/>
<path d="M184.269 351.205L186.679 352.41L195.856 329.486C195.856 329.486 186.351 327.934 171.293 346.683C175.995 346.738 180.551 348.326 184.269 351.205Z" fill="#999999" stroke="#263238" stroke-miterlimit="10"/>
<path d="M221.383 372.605V382.795C221.383 382.795 234.368 386.651 243.979 381.108L221.383 372.605Z" fill="#999999" stroke="#263238" stroke-miterlimit="10"/>
<path d="M291.764 231.794C291.774 231.982 291.754 232.171 291.706 232.353C291.302 233.944 281.401 271.318 249.715 287.947C249.439 288.095 249.131 288.171 248.818 288.169C248.387 288.168 247.969 288.024 247.63 287.758C247.291 287.492 247.05 287.121 246.947 286.702C246.844 286.284 246.884 285.843 247.061 285.45C247.237 285.057 247.54 284.735 247.922 284.534C276.842 269.371 287.031 234.811 287.918 231.63L291.764 231.794Z" fill="#263238"/>
<path d="M223.581 221.884C218.571 233.325 215.869 245.643 215.628 258.13C215.628 259.142 215.628 260.174 215.628 261.225C215.628 261.485 215.628 261.745 215.628 262.006C215.34 262.015 215.053 262.044 214.77 262.092C213.726 262.257 212.715 262.582 211.772 263.056C211.772 261.639 211.772 260.261 211.772 258.901C212.186 237.269 218.645 222.549 222.086 216.187L223.648 215.859C222.762 216.702 222.205 217.833 222.077 219.05C222.105 219.603 222.255 220.144 222.515 220.633C222.774 221.123 223.138 221.55 223.581 221.884Z" fill="#263238"/>
<path d="M261.543 279.252C263.799 282.385 261.948 287.59 257.398 290.877C252.848 294.165 247.333 294.28 245.068 291.147C242.803 288.014 244.654 282.809 249.204 279.522C253.754 276.234 259.316 276.119 261.543 279.252Z" fill="white" stroke="#263238" stroke-linecap="round" stroke-linejoin="round"/>
<path d="M255.932 277.391C257.533 279.608 256.222 283.291 253.04 285.614C249.859 287.937 245.916 288.024 244.364 285.807C242.812 283.59 244.075 279.907 247.256 277.584C250.438 275.261 254.332 275.183 255.932 277.391Z" fill="white" stroke="#263238" stroke-linecap="round" stroke-linejoin="round"/>
<path d="M230.454 316.52C230.043 316.793 229.544 316.898 229.058 316.814C228.572 316.73 228.137 316.463 227.842 316.068C227.547 315.673 227.414 315.18 227.471 314.69C227.529 314.2 227.772 313.751 228.15 313.435C228.314 313.3 234.782 307.796 231.948 289.258C231.707 287.687 231.399 286.009 230.984 284.245C229.76 278.625 227.87 271.511 224.005 266.286C223.085 264.908 221.826 263.79 220.348 263.04C218.871 262.29 217.225 261.934 215.57 262.006C215.282 262.015 214.995 262.044 214.712 262.092C213.669 262.257 212.657 262.582 211.714 263.056C208.834 264.544 206.648 267.096 205.621 270.171L205.274 271.135C203.088 277.046 201.301 283.098 199.924 289.248C198.382 296.816 197.861 304.749 200.599 310.292C201.332 311.813 202.377 313.163 203.666 314.254C204.955 315.345 206.458 316.153 208.079 316.626C208.515 316.769 208.885 317.062 209.123 317.453C209.362 317.844 209.453 318.308 209.381 318.76C209.31 319.213 209.079 319.625 208.731 319.922C208.383 320.22 207.94 320.384 207.482 320.385C207.279 320.385 207.077 320.352 206.884 320.289C204.776 319.656 202.822 318.592 201.146 317.165C199.47 315.738 198.109 313.979 197.148 311.999C194.063 305.762 194.468 297.269 196.029 289.248C197.414 282.652 199.289 276.169 201.64 269.853L201.987 268.889C202.745 266.594 204.014 264.502 205.699 262.77C207.384 261.038 209.441 259.712 211.714 258.892C212.5 258.619 213.31 258.419 214.133 258.294C214.625 258.227 215.097 258.179 215.599 258.15C217.855 258.088 220.091 258.592 222.102 259.618C224.113 260.644 225.834 262.157 227.109 264.02C231.408 269.804 233.452 277.449 234.753 283.445C235.206 285.508 235.553 287.446 235.814 289.277C238.86 310.061 230.83 316.25 230.454 316.52Z" fill="#263238" stroke="#263238" stroke-miterlimit="10"/>
<path d="M206.132 320.048C206.132 320.048 213.121 322.94 214.895 320.048C216.669 317.156 215.232 315.797 212.813 315.565C210.401 315.442 207.985 315.442 205.573 315.565L206.132 320.048Z" fill="#263238" stroke="#263238" stroke-miterlimit="10"/>
<path d="M209.342 319.084C209.216 319.471 208.971 319.807 208.642 320.046C208.313 320.285 207.917 320.414 207.511 320.414C207.308 320.414 207.106 320.381 206.913 320.318C204.805 319.685 202.851 318.621 201.175 317.194C199.499 315.767 198.137 314.008 197.177 312.028C194.092 305.79 194.497 297.298 196.058 289.277H199.914C198.372 296.844 197.851 304.778 200.589 310.321C201.323 311.842 202.368 313.192 203.656 314.283C204.945 315.374 206.449 316.182 208.07 316.655C208.314 316.729 208.54 316.852 208.737 317.015C208.933 317.177 209.095 317.378 209.213 317.604C209.332 317.83 209.404 318.077 209.426 318.331C209.448 318.585 209.42 318.841 209.342 319.084Z" fill="white" stroke="#263238" stroke-linecap="round" stroke-linejoin="round"/>
<path d="M224.014 314.428C223.724 314.773 223.509 315.175 223.385 315.609C223.26 316.042 223.228 316.497 223.291 316.944C223.484 317.604 223.902 318.176 224.473 318.56C225.043 318.944 225.73 319.116 226.415 319.045C227.784 318.863 229.036 318.176 229.924 317.117C230.888 316.038 234.233 308.972 231.138 310.186C228.892 311.035 225.518 312.471 224.014 314.428Z" fill="#263238" stroke="#263238" stroke-miterlimit="10"/>
<path d="M230.454 316.52C230.043 316.793 229.544 316.898 229.058 316.814C228.572 316.73 228.137 316.463 227.842 316.068C227.547 315.673 227.414 315.18 227.471 314.69C227.529 314.2 227.772 313.751 228.15 313.435C228.314 313.3 234.782 307.796 231.948 289.258H235.804C238.86 310.061 230.83 316.25 230.454 316.52Z" fill="white" stroke="#263238" stroke-linecap="round" stroke-linejoin="round"/>
<path opacity="0.2" d="M247.748 146.133C247.748 146.133 259.885 139.828 271.038 146.133C271.038 146.133 271.221 155.435 267.009 159.263C265.515 160.622 258.67 160.853 256.077 160.622C245.55 159.667 247.748 146.133 247.748 146.133Z" fill="white"/>
<path opacity="0.2" d="M240.132 146.133C240.132 146.133 227.996 139.828 216.852 146.133C216.852 146.133 216.669 155.435 220.872 159.263C222.366 160.622 229.22 160.853 231.803 160.622C242.33 159.667 240.132 146.133 240.132 146.133Z" fill="white"/>
<path d="M247.748 146.133C247.748 146.133 259.885 139.828 271.038 146.133C271.038 146.133 271.221 155.435 267.009 159.263C265.515 160.622 258.67 160.853 256.077 160.622C245.55 159.667 247.748 146.133 247.748 146.133Z" stroke="#263238" stroke-miterlimit="10"/>
<path d="M240.132 146.133C240.132 146.133 227.996 139.828 216.852 146.133C216.852 146.133 216.669 155.435 220.872 159.263C222.366 160.622 229.22 160.853 231.803 160.622C242.33 159.667 240.132 146.133 240.132 146.133Z" stroke="#263238" stroke-miterlimit="10"/>
<path d="M240.132 146.133C240.132 146.133 242.851 144.137 247.748 146.133" stroke="#263238" stroke-miterlimit="10"/>
<path d="M271.038 146.133L276.109 148.485" stroke="#263238" stroke-miterlimit="10"/>
<path d="M76.9465 442.206L112.624 408.505H395.789L417.229 442.206H76.9465Z" fill="white" stroke="#263238" stroke-linecap="round" stroke-linejoin="round"/>
<path d="M417.229 442.206H76.9465V451.277H417.229V442.206Z" fill="#263238" stroke="#263238" stroke-linecap="round" stroke-linejoin="round"/>
<path d="M112.624 433.877V426.888H168.536V433.877H157.749H112.624Z" fill="white" stroke="#263238" stroke-miterlimit="10"/>
<path d="M112.624 426.888L145.651 404.735L189.725 405.776L168.536 426.888H112.624Z" fill="white" stroke="#263238" stroke-linecap="round" stroke-linejoin="round"/>
<path d="M168.536 433.877L189.725 412.65V405.776L168.536 426.888V433.877Z" fill="white" stroke="#263238" stroke-linecap="round" stroke-linejoin="round"/>
<path d="M167.023 425.124C167.023 425.124 162.559 426.011 162.559 429.877C162.559 433.742 166.415 434.88 166.415 434.88" stroke="#263238" stroke-width="2" stroke-linecap="round" stroke-linejoin="round"/>
<path d="M162.559 425.124C162.559 425.124 158.096 426.011 158.096 429.877C158.096 433.742 161.952 434.88 161.952 434.88" stroke="#263238" stroke-width="2" stroke-linecap="round" stroke-linejoin="round"/>
<path d="M158.096 425.124C158.096 425.124 153.633 426.011 153.633 429.877C153.633 433.742 157.489 434.88 157.489 434.88" stroke="#263238" stroke-width="2" stroke-linecap="round" stroke-linejoin="round"/>
<path d="M153.633 425.124C153.633 425.124 149.169 426.011 149.169 429.877C149.169 433.742 153.025 434.88 153.025 434.88" stroke="#263238" stroke-width="2" stroke-linecap="round" stroke-linejoin="round"/>
<path d="M149.169 425.124C149.169 425.124 144.706 426.011 144.706 429.877C144.706 433.742 148.562 434.88 148.562 434.88" stroke="#263238" stroke-width="2" stroke-linecap="round" stroke-linejoin="round"/>
<path d="M144.706 425.124C144.706 425.124 140.243 426.011 140.243 429.877C140.243 433.742 144.099 434.88 144.099 434.88" stroke="#263238" stroke-width="2" stroke-linecap="round" stroke-linejoin="round"/>
<path d="M140.243 425.124C140.243 425.124 135.779 426.011 135.779 429.877C135.779 433.742 139.635 434.88 139.635 434.88" stroke="#263238" stroke-width="2" stroke-linecap="round" stroke-linejoin="round"/>
<path d="M135.779 425.124C135.779 425.124 131.316 426.011 131.316 429.877C131.316 433.742 135.172 434.88 135.172 434.88" stroke="#263238" stroke-width="2" stroke-linecap="round" stroke-linejoin="round"/>
<path d="M130.767 425.124C130.767 425.124 126.303 426.011 126.303 429.877C126.303 433.742 130.159 434.88 130.159 434.88" stroke="#263238" stroke-width="2" stroke-linecap="round" stroke-linejoin="round"/>
<path d="M125.744 425.124C125.744 425.124 121.281 426.011 121.281 429.877C121.281 433.742 125.137 434.88 125.137 434.88" stroke="#263238" stroke-width="2" stroke-linecap="round" stroke-linejoin="round"/>
<path d="M120.163 425.124C120.163 425.124 115.699 426.011 115.699 429.877C115.699 433.742 119.555 434.88 119.555 434.88" stroke="#263238" stroke-width="2" stroke-linecap="round" stroke-linejoin="round"/>
<path d="M148.456 410.163C145.377 411.861 142.937 414.518 141.506 417.73C145.564 416.448 148.774 413.556 151.849 410.664L148.514 418.935C150.049 418.81 151.534 418.325 152.847 417.52C154.16 416.714 155.265 415.61 156.072 414.298C155.807 414.412 155.57 414.581 155.376 414.793C155.181 415.005 155.033 415.255 154.942 415.528C154.851 415.801 154.819 416.091 154.847 416.377C154.876 416.663 154.965 416.94 155.108 417.19C157.903 416.785 159.687 414.086 161.094 411.638C161.353 413 161.453 414.388 161.393 415.773C163.731 416.108 166.116 415.805 168.295 414.896" stroke="#263238" stroke-width="0.75" stroke-linecap="round" stroke-linejoin="round"/>
<path d="M393.9 374.745H296.719V428.103H393.9V374.745Z" fill="white" stroke="#263238" stroke-linecap="round" stroke-linejoin="round"/>
<path d="M296.343 428.093L280.717 413.238V359.88L296.343 374.745V428.093Z" fill="white" stroke="#263238" stroke-linecap="round" stroke-linejoin="round"/>
<path d="M393.9 374.745L378.274 359.88H281.102L296.719 374.745H393.9Z" fill="white" stroke="#263238" stroke-linecap="round" stroke-linejoin="round"/>
<path d="M358.165 394.758H349.575V385.773H337.467V394.758H328.097V406.866H337.467V415.841H349.575V406.866H358.165V394.758Z" fill="#0529BB" stroke="#263238" stroke-miterlimit="10"/>
<path d="M344.466 374.745L328.84 359.88" stroke="#263238" stroke-linecap="round" stroke-linejoin="round"/>
<path d="M139.053 147.969C150.389 136.633 150.389 118.255 139.053 106.92C127.718 95.5844 109.34 95.5845 98.0045 106.92C86.6691 118.255 86.6691 136.633 98.0045 147.969C109.34 159.304 127.718 159.304 139.053 147.969Z" fill="white" stroke="#263238" stroke-linecap="round" stroke-linejoin="round"/>
<path d="M142.672 122.997C142.672 124.94 142.062 126.834 140.93 128.413C139.797 129.991 138.198 131.175 136.358 131.798L123.392 136.165L107.611 141.496C105.287 142.26 102.754 142.075 100.566 140.98C98.3772 139.885 96.7102 137.969 95.9279 135.651C95.1457 133.332 95.3117 130.798 96.3896 128.601C97.4676 126.404 99.3701 124.722 101.683 123.922L116.017 119.102L130.42 114.282C131.813 113.814 133.298 113.683 134.751 113.9C136.205 114.117 137.587 114.677 138.782 115.532C139.978 116.388 140.953 117.515 141.627 118.821C142.302 120.127 142.657 121.575 142.662 123.045L142.672 122.997Z" fill="white"/>
<path d="M142.672 122.997C142.672 124.94 142.062 126.834 140.93 128.413C139.797 129.991 138.198 131.175 136.358 131.798L123.392 136.165C123.046 129.777 120.431 123.723 116.017 119.093L130.42 114.273C131.813 113.804 133.298 113.673 134.751 113.89C136.205 114.108 137.587 114.667 138.782 115.523C139.978 116.378 140.953 117.505 141.627 118.812C142.302 120.118 142.657 121.565 142.662 123.035L142.672 122.997Z" fill="#0529BB"/>
<path d="M142.672 122.997C142.672 124.94 142.062 126.834 140.93 128.413C139.797 129.991 138.198 131.175 136.358 131.798L123.392 136.165L107.611 141.496C105.287 142.26 102.754 142.075 100.566 140.98C98.3772 139.885 96.7102 137.969 95.9279 135.651C95.1457 133.332 95.3117 130.798 96.3896 128.601C97.4676 126.404 99.3701 124.722 101.683 123.922L116.017 119.102L130.42 114.282C131.813 113.814 133.298 113.683 134.751 113.9C136.205 114.117 137.587 114.677 138.782 115.532C139.978 116.388 140.953 117.515 141.627 118.821C142.302 120.127 142.657 121.575 142.662 123.045L142.672 122.997Z" stroke="#263238" stroke-linecap="round" stroke-linejoin="round"/>
<path d="M123.392 136.165C123.097 129.766 120.474 123.694 116.017 119.093" stroke="#263238" stroke-linecap="round" stroke-linejoin="round"/>
<path d="M139.568 119.536C140.177 120.561 140.484 121.737 140.455 122.929" stroke="white" stroke-linecap="round" stroke-linejoin="round"/>
<path d="M119.681 120.5L131.249 116.644C132.286 116.288 133.39 116.167 134.48 116.288C135.57 116.41 136.62 116.772 137.553 117.348" stroke="white" stroke-linecap="round" stroke-linejoin="round"/>
<path d="M315.751 88.067C330.514 81.8188 337.416 64.786 331.168 50.0231C324.92 35.2603 307.887 28.3578 293.124 34.606C278.362 40.8543 271.459 57.8871 277.707 72.6499C283.955 87.4127 300.988 94.3152 315.751 88.067Z" fill="white" stroke="#263238" stroke-linecap="round" stroke-linejoin="round"/>
<path d="M314.447 73.4858L289.133 65.0122C287.028 64.3046 285.29 62.7902 284.301 60.8018C283.312 58.8133 283.153 56.5137 283.859 54.4082C284.567 52.3033 286.082 50.5655 288.07 49.5767C290.058 48.5879 292.358 48.4291 294.463 49.1352L319.778 57.5991C321.881 58.3089 323.618 59.8236 324.606 61.8113C325.595 63.799 325.755 66.0976 325.051 68.2031C324.343 70.3082 322.829 72.0467 320.841 73.037C318.854 74.0274 316.554 74.1888 314.447 73.4858Z" fill="#0529BB"/>
<path d="M295.9 64.3374L300.141 54.2058" stroke="#263238" stroke-linecap="round" stroke-linejoin="round"/>
<path d="M309.849 68.9742L314.071 58.8715" stroke="#263238" stroke-linecap="round" stroke-linejoin="round"/>
<path d="M299.399 64.935C299.873 64.935 300.257 64.5509 300.257 64.0771C300.257 63.6032 299.873 63.2191 299.399 63.2191C298.925 63.2191 298.541 63.6032 298.541 64.0771C298.541 64.5509 298.925 64.935 299.399 64.935Z" fill="#263238"/>
<path d="M307.834 66.6028C307.834 66.7725 307.784 66.9384 307.69 67.0795C307.595 67.2206 307.461 67.3306 307.304 67.3955C307.148 67.4604 306.975 67.4774 306.809 67.4443C306.642 67.4112 306.489 67.3295 306.369 67.2095C306.249 67.0895 306.168 66.9366 306.135 66.7702C306.102 66.6038 306.119 66.4313 306.183 66.2745C306.248 66.1177 306.358 65.9837 306.499 65.8895C306.641 65.7952 306.806 65.7449 306.976 65.7449C307.204 65.7449 307.422 65.8353 307.583 65.9962C307.744 66.1571 307.834 66.3753 307.834 66.6028Z" fill="#263238"/>
<path d="M302.725 57.3001C303.199 57.3001 303.583 56.916 303.583 56.4422C303.583 55.9683 303.199 55.5842 302.725 55.5842C302.251 55.5842 301.867 55.9683 301.867 56.4422C301.867 56.916 302.251 57.3001 302.725 57.3001Z" fill="#263238"/>
<path d="M311.035 58.8908C311.035 59.0605 310.984 59.2264 310.89 59.3675C310.796 59.5085 310.662 59.6185 310.505 59.6834C310.348 59.7484 310.176 59.7654 310.009 59.7323C309.843 59.6992 309.69 59.6175 309.57 59.4975C309.45 59.3775 309.368 59.2246 309.335 59.0582C309.302 58.8917 309.319 58.7192 309.384 58.5625C309.449 58.4057 309.559 58.2717 309.7 58.1774C309.841 58.0832 310.007 58.0328 310.177 58.0328C310.404 58.0328 310.622 58.1232 310.783 58.2841C310.944 58.445 311.035 58.6633 311.035 58.8908Z" fill="#263238"/>
<path d="M314.447 73.4858L289.133 65.0122C287.028 64.3046 285.29 62.7902 284.301 60.8018C283.312 58.8133 283.153 56.5137 283.859 54.4082C284.567 52.3033 286.082 50.5655 288.07 49.5767C290.058 48.5879 292.358 48.4291 294.463 49.1352L319.778 57.5991C321.881 58.3089 323.618 59.8236 324.606 61.8113C325.595 63.799 325.755 66.0976 325.051 68.2031C324.343 70.3082 322.829 72.0467 320.841 73.037C318.854 74.0274 316.554 74.1888 314.447 73.4858Z" stroke="#263238" stroke-linecap="round" stroke-linejoin="round"/>
<path d="M194.863 88.7844C210.894 88.7844 223.889 75.789 223.889 59.7583C223.889 43.7277 210.894 30.7323 194.863 30.7323C178.832 30.7323 165.837 43.7277 165.837 59.7583C165.837 75.789 178.832 88.7844 194.863 88.7844Z" fill="white" stroke="#263238" stroke-linecap="round" stroke-linejoin="round"/>
<path d="M211.492 60.5007V72.3964C211.492 75.4138 209.564 77.8623 207.202 77.8623H182.524C180.152 77.8623 178.234 75.4138 178.234 72.3964V60.5007C178.234 57.4834 180.162 55.0348 182.524 55.0348H186.582V48.1326H202.97V55.0348H207.173C209.564 55.0348 211.492 57.4834 211.492 60.5007Z" fill="white" stroke="#263238" stroke-linecap="round" stroke-linejoin="round"/>
<path d="M211.482 61.8695H178.234V69.2441H211.482V61.8695Z" fill="#0529BB" stroke="#263238" stroke-miterlimit="10"/>
<path d="M188.848 40.0542H201.033C202.408 40.0542 203.727 40.6006 204.7 41.5732C205.672 42.5459 206.219 43.865 206.219 45.2405V50.6293H183.652V45.2405C183.652 44.5586 183.786 43.8834 184.047 43.2536C184.309 42.6237 184.691 42.0516 185.174 41.5698C185.657 41.0881 186.23 40.7063 186.86 40.4462C187.49 40.1862 188.166 40.0529 188.848 40.0542Z" fill="#0529BB" stroke="#263238" stroke-miterlimit="10"/>
<path d="M187.594 40.382V50.6293" stroke="#263238" stroke-linecap="round" stroke-linejoin="round"/>
<path d="M192.925 40.0542V50.6293" stroke="#263238" stroke-linecap="round" stroke-linejoin="round"/>
<path d="M198.256 40.0542V50.6293" stroke="#263238" stroke-linecap="round" stroke-linejoin="round"/>
<path d="M203.587 40.6519V50.6293" stroke="#263238" stroke-linecap="round" stroke-linejoin="round"/>
<path d="M120.498 218.438C123.092 202.618 112.37 187.692 96.5505 185.099C80.731 182.505 65.8044 193.227 63.2111 209.046C60.6177 224.866 71.3396 239.793 87.1591 242.386C102.979 244.979 117.905 234.257 120.498 218.438Z" fill="white" stroke="#263238" stroke-linecap="round" stroke-linejoin="round"/>
<path d="M106.579 221.23C109.74 214.545 105.393 205.858 96.8697 201.827C88.3459 197.796 78.8732 199.947 75.7117 206.632C72.5502 213.318 76.8971 222.005 85.4209 226.036C93.9446 230.067 103.417 227.915 106.579 221.23Z" fill="#0529BB" stroke="#263238" stroke-linecap="round" stroke-linejoin="round"/>
<path d="M107.633 218.956C110.599 212.685 106.093 204.333 97.5694 200.302C89.0457 196.271 79.7316 198.088 76.7658 204.359C73.8 210.63 78.3057 218.982 86.8294 223.013C95.3532 227.044 104.667 225.228 107.633 218.956Z" fill="#0529BB" stroke="#263238" stroke-linecap="round" stroke-linejoin="round"/>
<path d="M97.123 203.076L86.5865 217.893" stroke="#263238" stroke-linecap="round" stroke-linejoin="round"/>
<path d="M90.7799 200.676C92.192 200.866 93.583 201.189 94.9347 201.64" stroke="white" stroke-linecap="round" stroke-linejoin="round"/>
<path d="M81.4194 214.625C81.4194 214.625 76.0403 208.735 81.2941 203.057C82.5065 201.821 84.0854 201.01 85.796 200.743" stroke="white" stroke-linecap="round" stroke-linejoin="round"/>
<path d="M426.245 218.455C428.838 202.635 418.116 187.709 402.297 185.115C386.477 182.522 371.551 193.244 368.957 209.063C366.364 224.883 377.086 239.809 392.905 242.403C408.725 244.996 423.651 234.274 426.245 218.455Z" fill="white" stroke="#263238" stroke-linecap="round" stroke-linejoin="round"/>
<path d="M414.26 216.669C414.038 216.987 413.816 217.315 413.585 217.633C409.237 223.658 402.537 229.278 397.573 230.386V230.309C392.753 229.23 386.265 223.879 381.917 218.038C381.676 217.719 381.445 217.392 381.223 217.074C377.04 211.077 375.276 204.783 379.932 202.18C389.398 196.897 397.573 208.224 397.573 208.224C397.573 208.224 405.767 196.984 415.214 202.257C419.745 204.783 418.193 210.817 414.26 216.669Z" fill="#0529BB" stroke="#263238" stroke-miterlimit="10"/>
<path d="M414.26 216.669C414.038 216.987 413.816 217.315 413.585 217.633H411.194L408.456 221.248L406.596 210.528L403.704 217.816H396.869L393.37 223.648L390.671 211.839L387.191 217.999H381.918C381.677 217.681 381.445 217.353 381.223 217.035H386.631L391.056 209.198L393.775 221.103L396.349 216.813H403.097L406.953 206.942L409.016 218.857L410.703 216.63L414.26 216.669Z" fill="white"/>
<path d="M369.655 156.795C385.686 156.795 398.681 143.799 398.681 127.769C398.681 111.738 385.686 98.7426 369.655 98.7426C353.625 98.7426 340.629 111.738 340.629 127.769C340.629 143.799 353.625 156.795 369.655 156.795Z" fill="white" stroke="#263238" stroke-linecap="round" stroke-linejoin="round"/>
<path d="M367.477 114.35C367.756 114.976 366.012 116.364 363.621 117.454C361.23 118.543 358.994 118.919 358.714 118.283C358.434 117.647 360.17 116.268 362.57 115.179C364.97 114.089 367.188 113.752 367.477 114.35Z" fill="white" stroke="#263238" stroke-linecap="round" stroke-linejoin="round"/>
<path d="M380.539 141.274L371.853 145.477L364.064 129.436L358.685 118.35L367.371 114.138L372.615 124.954L380.539 141.274Z" fill="white" stroke="#263238" stroke-linecap="round" stroke-linejoin="round"/>
<path d="M360.295 121.657L364.064 119.912Z" fill="#0529BB"/>
<path d="M360.295 121.657L364.064 119.912" stroke="#263238" stroke-linecap="round" stroke-linejoin="round"/>
<path d="M361.934 125.146L365.703 123.402Z" fill="#0529BB"/>
<path d="M361.934 125.146L365.703 123.402" stroke="#263238" stroke-linecap="round" stroke-linejoin="round"/>
<path d="M375.179 143.867L379.662 149.748L377.425 142.778L375.179 143.867Z" fill="white" stroke="#263238" stroke-linecap="round" stroke-linejoin="round"/>
<path d="M380.539 141.274C378.506 143.31 375.911 144.693 373.087 145.246L371.853 145.477L364.064 129.436L372.615 124.954L380.539 141.274Z" fill="#0529BB" stroke="#263238" stroke-miterlimit="10"/>
<path d="M365.703 132.483L369.251 130.844" stroke="#263238" stroke-linecap="round" stroke-linejoin="round"/>
<path d="M367.65 136.213L371.13 134.623Z" fill="#0529BB"/>
<path d="M367.65 136.213L371.13 134.623" stroke="#263238" stroke-linecap="round" stroke-linejoin="round"/>
<path d="M361.693 116.885L358.945 110.706L361.105 109.482L364.064 115.738L361.693 116.885Z" fill="white" stroke="#263238" stroke-linecap="round" stroke-linejoin="round"/>
<path d="M366.407 108.73L365.751 107.284L354.183 112.46L354.839 113.906C355.109 114.523 357.914 113.848 361.114 112.422C364.315 110.995 366.677 109.337 366.407 108.73Z" fill="white" stroke="#263238" stroke-linecap="round" stroke-linejoin="round"/>
<path d="M365.751 107.284C365.481 106.676 362.666 107.341 359.476 108.768C356.285 110.195 353.913 111.853 354.183 112.46C354.453 113.068 357.268 112.402 360.459 110.966C363.65 109.53 366.021 107.891 365.751 107.284Z" fill="white" stroke="#263238" stroke-linecap="round" stroke-linejoin="round"/>
</svg>
