<svg width="201" height="32" viewBox="0 0 201 32" fill="none" xmlns="http://www.w3.org/2000/svg">
<path d="M29.8334 16C29.8334 8.63996 23.8601 2.66663 16.5001 2.66663C9.14008 2.66663 3.16675 8.63996 3.16675 16C3.16675 22.4533 7.75342 27.8266 13.8334 29.0666V20H11.1667V16H13.8334V12.6666C13.8334 10.0933 15.9267 7.99996 18.5001 7.99996H21.8334V12H19.1667C18.4334 12 17.8334 12.6 17.8334 13.3333V16H21.8334V20H17.8334V29.2666C24.5667 28.6 29.8334 22.92 29.8334 16Z" fill="#FA0808"/>
<path d="M73.8708 2.66663C75.3708 2.67063 76.1321 2.67863 76.7894 2.69729L77.0481 2.70663C77.3468 2.71729 77.6414 2.73063 77.9974 2.74663C79.4161 2.81329 80.3841 3.03729 81.2334 3.36663C82.1135 3.70529 82.8548 4.16396 83.5961 4.90396C84.2741 5.57049 84.7987 6.37674 85.1335 7.26663C85.4628 8.11596 85.6868 9.08396 85.7535 10.504C85.7695 10.8586 85.7828 11.1533 85.7935 11.4533L85.8015 11.712C85.8215 12.368 85.8295 13.1293 85.8321 14.6293L85.8335 15.624V17.3706C85.8367 18.3432 85.8265 19.3157 85.8028 20.288L85.7948 20.5466C85.7841 20.8466 85.7708 21.1413 85.7548 21.496C85.6881 22.916 85.4615 23.8826 85.1335 24.7333C84.7997 25.6237 84.2749 26.4301 83.5961 27.096C82.9294 27.7737 82.1232 28.2983 81.2334 28.6333C80.3841 28.9626 79.4161 29.1866 77.9974 29.2533C77.6811 29.2682 77.3646 29.2815 77.0481 29.2933L76.7894 29.3013C76.1321 29.32 75.3708 29.3293 73.8708 29.332L72.8761 29.3333H71.1308C70.1578 29.3366 69.1848 29.3264 68.2121 29.3026L67.9535 29.2946C67.6369 29.2826 67.3205 29.2689 67.0041 29.2533C65.5855 29.1866 64.6175 28.9626 63.7668 28.6333C62.877 28.2991 62.0711 27.7744 61.4055 27.096C60.7268 26.4297 60.2018 25.6234 59.8668 24.7333C59.5375 23.884 59.3135 22.916 59.2468 21.496C59.2319 21.1796 59.2186 20.8631 59.2068 20.5466L59.2001 20.288C59.1755 19.3157 59.1644 18.3432 59.1668 17.3706V14.6293C59.1631 13.6568 59.1728 12.6842 59.1961 11.712L59.2055 11.4533C59.2161 11.1533 59.2295 10.8586 59.2455 10.504C59.3121 9.08396 59.5361 8.11729 59.8655 7.26663C60.2003 6.37583 60.7264 5.56932 61.4068 4.90396C62.0722 4.22592 62.8776 3.70128 63.7668 3.36663C64.6175 3.03729 65.5841 2.81329 67.0041 2.74663C67.3588 2.73063 67.6548 2.71729 67.9535 2.70663L68.2121 2.69863C69.1844 2.67494 70.1569 2.66471 71.1295 2.66796L73.8708 2.66663ZM72.5001 9.33329C70.732 9.33329 69.0363 10.0357 67.7861 11.2859C66.5358 12.5362 65.8335 14.2318 65.8335 16C65.8335 17.7681 66.5358 19.4638 67.7861 20.714C69.0363 21.9642 70.732 22.6666 72.5001 22.6666C74.2682 22.6666 75.9639 21.9642 77.2142 20.714C78.4644 19.4638 79.1668 17.7681 79.1668 16C79.1668 14.2318 78.4644 12.5362 77.2142 11.2859C75.9639 10.0357 74.2682 9.33329 72.5001 9.33329ZM72.5001 12C73.0254 11.9999 73.5456 12.1032 74.0309 12.3042C74.5162 12.5051 74.9572 12.7997 75.3287 13.1711C75.7002 13.5424 75.9949 13.9833 76.196 14.4686C76.3971 14.9539 76.5007 15.474 76.5008 15.9993C76.5009 16.5246 76.3975 17.0447 76.1966 17.5301C75.9956 18.0154 75.7011 18.4564 75.3297 18.8279C74.9583 19.1994 74.5174 19.4941 74.0321 19.6952C73.5469 19.8963 73.0267 19.9999 72.5015 20C71.4406 20 70.4232 19.5785 69.673 18.8284C68.9229 18.0782 68.5015 17.0608 68.5015 16C68.5015 14.9391 68.9229 13.9217 69.673 13.1715C70.4232 12.4214 71.4406 12 72.5015 12M79.5014 7.33329C79.0594 7.33329 78.6355 7.50889 78.3229 7.82145C78.0104 8.13401 77.8348 8.55793 77.8348 8.99996C77.8348 9.44199 78.0104 9.86591 78.3229 10.1785C78.6355 10.491 79.0594 10.6666 79.5014 10.6666C79.9435 10.6666 80.3674 10.491 80.68 10.1785C80.9925 9.86591 81.1681 9.44199 81.1681 8.99996C81.1681 8.55793 80.9925 8.13401 80.68 7.82145C80.3674 7.50889 79.9435 7.33329 79.5014 7.33329Z" fill="#FA0808"/>
<path d="M137.833 4C138.541 4 139.219 4.28095 139.719 4.78105C140.219 5.28115 140.5 5.95942 140.5 6.66667V25.3333C140.5 26.0406 140.219 26.7189 139.719 27.219C139.219 27.719 138.541 28 137.833 28H119.167C118.459 28 117.781 27.719 117.281 27.219C116.781 26.7189 116.5 26.0406 116.5 25.3333V6.66667C116.5 5.95942 116.781 5.28115 117.281 4.78105C117.781 4.28095 118.459 4 119.167 4H137.833ZM137.167 24.6667V17.6C137.167 16.4472 136.709 15.3416 135.894 14.5264C135.078 13.7113 133.973 13.2533 132.82 13.2533C131.687 13.2533 130.367 13.9467 129.727 14.9867V13.5067H126.007V24.6667H129.727V18.0933C129.727 17.0667 130.553 16.2267 131.58 16.2267C132.075 16.2267 132.55 16.4233 132.9 16.7734C133.25 17.1235 133.447 17.5983 133.447 18.0933V24.6667H137.167ZM121.673 11.4133C122.267 11.4133 122.837 11.1773 123.257 10.7573C123.677 10.3372 123.913 9.76742 123.913 9.17333C123.913 7.93333 122.913 6.92 121.673 6.92C121.076 6.92 120.503 7.1574 120.08 7.57999C119.657 8.00257 119.42 8.57571 119.42 9.17333C119.42 10.4133 120.433 11.4133 121.673 11.4133ZM123.527 24.6667V13.5067H119.833V24.6667H123.527Z" fill="#FA0808"/>
<g clip-path="url(#clip0_1269_3731)">
<path fill-rule="evenodd" clip-rule="evenodd" d="M184.5 2.66663C177.136 2.66663 171.167 8.63596 171.167 16C171.167 18.52 171.867 20.88 173.084 22.8906L171.895 26.9333C171.826 27.1654 171.822 27.4116 171.882 27.6461C171.942 27.8805 172.063 28.0945 172.234 28.2656C172.406 28.4367 172.62 28.5585 172.854 28.6183C173.088 28.6781 173.335 28.6736 173.567 28.6053L177.609 27.416C179.688 28.6734 182.071 29.3366 184.5 29.3333C191.864 29.3333 197.833 23.364 197.833 16C197.833 8.63596 191.864 2.66663 184.5 2.66663ZM181.484 19.0173C184.181 21.7133 186.756 22.0693 187.665 22.1026C189.048 22.1533 190.395 21.0973 190.919 19.872C190.985 19.7195 191.009 19.5521 190.988 19.3872C190.968 19.2224 190.903 19.066 190.801 18.9346C190.071 18.0013 189.083 17.3306 188.117 16.664C187.916 16.5246 187.668 16.4687 187.426 16.508C187.184 16.5472 186.967 16.6787 186.82 16.8746L186.02 18.0946C185.978 18.1602 185.912 18.2072 185.837 18.2261C185.761 18.2449 185.681 18.2341 185.613 18.196C185.071 17.8853 184.28 17.3573 183.712 16.7893C183.144 16.2213 182.648 15.4666 182.369 14.9586C182.335 14.8941 182.325 14.8192 182.341 14.7479C182.358 14.6765 182.399 14.6136 182.459 14.5706L183.691 13.656C183.867 13.5031 183.98 13.2909 184.01 13.0598C184.039 12.8287 183.983 12.5948 183.851 12.4026C183.253 11.528 182.557 10.416 181.548 9.67863C181.418 9.58423 181.265 9.52537 181.105 9.50784C180.945 9.4903 180.784 9.5147 180.636 9.57863C179.409 10.104 178.348 11.4506 178.399 12.836C178.432 13.7453 178.788 16.32 181.484 19.0173Z" fill="#FA0808"/>
</g>
<defs>
<clipPath id="clip0_1269_3731">
<rect width="32" height="32" fill="white" transform="translate(168.5)"/>
</clipPath>
</defs>
</svg>
